<svg xmlns="http://www.w3.org/2000/svg" xmlns:xlink="http://www.w3.org/1999/xlink" width="300" zoomAndPan="magnify" viewBox="0 0 224.87999 225" height="300" preserveAspectRatio="xMidYMid meet" version="1.0"><defs><clipPath id="2f4d1c5a16"><path d="M 85 0.0585938 L 107 0.0585938 L 107 58 L 85 58 Z M 85 0.0585938 " clip-rule="nonzero"/></clipPath><clipPath id="32f8ab6d2a"><path d="M 29.234375 1 L 51 1 L 51 209 L 29.234375 209 Z M 29.234375 1 " clip-rule="nonzero"/></clipPath><clipPath id="e70b366a8c"><path d="M 29.234375 197 L 195.644531 197 L 195.644531 224.839844 L 29.234375 224.839844 Z M 29.234375 197 " clip-rule="nonzero"/></clipPath><clipPath id="3a8b05bafb"><path d="M 52 1.160156 L 195.644531 1.160156 L 195.644531 195.382812 L 52 195.382812 Z M 52 1.160156 " clip-rule="nonzero"/></clipPath></defs><g clip-path="url(#2f4d1c5a16)"><path fill="#3c50e0" d="M 106.914062 57.855469 L 106.914062 1.152344 C 106.914062 0.585938 106.488281 0.160156 106.0625 0.160156 L 86.5 0.160156 C 85.933594 0.160156 85.511719 0.585938 85.511719 1.152344 L 85.511719 57.855469 L 95.71875 47.933594 L 106.914062 57.855469 " fill-opacity="1" fill-rule="nonzero"/></g><g clip-path="url(#32f8ab6d2a)"><path fill="#3c50e0" d="M 43.125 195.070312 L 50.070312 195.070312 L 50.070312 1.292969 C 38.589844 1.292969 29.234375 10.792969 29.234375 22.132812 L 29.234375 208.964844 C 29.234375 201.308594 35.472656 195.070312 43.125 195.070312 " fill-opacity="1" fill-rule="nonzero"/></g><g clip-path="url(#e70b366a8c)"><path fill="#3c50e0" d="M 193.242188 222.429688 L 43.125 222.429688 C 36.890625 222.429688 31.785156 217.324219 31.785156 211.089844 C 31.785156 204.851562 36.890625 199.746094 43.125 199.746094 L 193.242188 199.746094 Z M 29.234375 211.089844 C 29.234375 218.601562 35.472656 224.839844 43.125 224.839844 L 195.652344 224.839844 L 195.652344 197.195312 L 43.125 197.195312 C 35.472656 197.195312 29.234375 203.433594 29.234375 211.089844 " fill-opacity="1" fill-rule="nonzero"/></g><g clip-path="url(#3a8b05bafb)"><path fill="#3c50e0" d="M 165.035156 117.957031 L 80.691406 117.957031 C 79.414062 117.957031 78.421875 116.964844 78.421875 115.691406 C 78.421875 114.414062 79.414062 113.421875 80.691406 113.421875 L 165.035156 113.421875 C 166.308594 113.421875 167.300781 114.414062 167.300781 115.691406 C 167.300781 116.964844 166.308594 117.957031 165.035156 117.957031 Z M 165.035156 132.980469 C 136.964844 132.980469 108.757812 132.980469 80.691406 132.980469 C 79.414062 132.980469 78.421875 131.992188 78.421875 130.714844 C 78.421875 129.441406 79.414062 128.449219 80.691406 128.449219 C 108.757812 128.449219 136.964844 128.449219 165.035156 128.449219 C 166.308594 128.449219 167.300781 129.441406 167.300781 130.714844 C 167.300781 131.992188 166.308594 132.980469 165.035156 132.980469 Z M 165.035156 147.867188 C 136.964844 147.867188 108.757812 147.867188 80.691406 147.867188 C 79.414062 147.867188 78.421875 146.875 78.421875 145.597656 C 78.421875 144.324219 79.414062 143.332031 80.691406 143.332031 C 108.757812 143.332031 136.964844 143.332031 165.035156 143.332031 C 166.308594 143.332031 167.300781 144.324219 167.300781 145.597656 C 167.300781 146.875 166.308594 147.867188 165.035156 147.867188 Z M 165.035156 162.890625 L 80.691406 162.890625 C 79.414062 162.890625 78.421875 161.898438 78.421875 160.625 C 78.421875 159.347656 79.414062 158.359375 80.691406 158.359375 L 165.035156 158.359375 C 166.308594 158.359375 167.300781 159.347656 167.300781 160.625 C 167.300781 161.898438 166.308594 162.890625 165.035156 162.890625 Z M 109.75 1.292969 L 109.75 31.347656 L 172.6875 31.347656 C 173.960938 31.347656 174.953125 32.339844 174.953125 33.472656 L 174.953125 96.835938 C 174.953125 98.113281 173.960938 99.105469 172.6875 99.105469 L 73.035156 99.105469 C 71.757812 99.105469 70.769531 98.113281 70.769531 96.835938 L 70.769531 33.472656 C 70.769531 32.339844 71.757812 31.347656 73.035156 31.347656 L 82.675781 31.347656 L 82.675781 1.292969 L 52.199219 1.292969 L 52.199219 195.070312 L 195.652344 195.070312 L 195.652344 1.292969 L 109.75 1.292969 " fill-opacity="1" fill-rule="nonzero"/></g></svg>