<svg xmlns="http://www.w3.org/2000/svg" xmlns:xlink="http://www.w3.org/1999/xlink" width="300" zoomAndPan="magnify" viewBox="0 0 224.87999 225" height="300" preserveAspectRatio="xMidYMid meet" version="1.0"><defs><filter x="0%" y="0%" width="100%" height="100%" id="7838d0b36a"><feColorMatrix values="0 0 0 0 1 0 0 0 0 1 0 0 0 0 1 0 0 0 1 0" color-interpolation-filters="sRGB"/></filter><clipPath id="75955c8064"><path d="M 11.085938 11.144531 L 222.664062 11.144531 L 222.664062 222.722656 L 11.085938 222.722656 Z M 11.085938 11.144531 " clip-rule="nonzero"/></clipPath><clipPath id="0459574ff0"><path d="M 116.875 11.144531 C 58.449219 11.144531 11.085938 58.507812 11.085938 116.933594 C 11.085938 175.359375 58.449219 222.722656 116.875 222.722656 C 175.300781 222.722656 222.664062 175.359375 222.664062 116.933594 C 222.664062 58.507812 175.300781 11.144531 116.875 11.144531 Z M 116.875 11.144531 " clip-rule="nonzero"/></clipPath><clipPath id="1cdd1a4cae"><path d="M 65 22.082031 L 155 22.082031 L 155 112 L 65 112 Z M 65 22.082031 " clip-rule="nonzero"/></clipPath><clipPath id="f22748560a"><path d="M 64 22.082031 L 156 22.082031 L 156 113 L 64 113 Z M 64 22.082031 " clip-rule="nonzero"/></clipPath><mask id="9e2045c2d0"><g filter="url(#7838d0b36a)"><rect x="-22.487999" width="269.855988" fill="#000000" y="-22.5" height="270" fill-opacity="0.7"/></g></mask><clipPath id="7120232487"><rect x="0" width="17" y="0" height="18"/></clipPath><mask id="06e74a2c1a"><g filter="url(#7838d0b36a)"><rect x="-22.487999" width="269.855988" fill="#000000" y="-22.5" height="270" fill-opacity="0.7"/></g></mask><clipPath id="4fd441780f"><rect x="0" width="8" y="0" height="8"/></clipPath><clipPath id="a580e5397b"><path d="M 46.660156 117 L 175 117 L 175 144 L 46.660156 144 Z M 46.660156 117 " clip-rule="nonzero"/></clipPath><clipPath id="5aeab419e7"><path d="M 46.660156 121 L 100 121 L 100 200 L 46.660156 200 Z M 46.660156 121 " clip-rule="nonzero"/></clipPath><clipPath id="cc16ac6fe8"><path d="M 110 126 L 178.589844 126 L 178.589844 201 L 110 201 Z M 110 126 " clip-rule="nonzero"/></clipPath><clipPath id="54855f3726"><path d="M 93 138 L 117 138 L 117 202.734375 L 93 202.734375 Z M 93 138 " clip-rule="nonzero"/></clipPath></defs><g clip-path="url(#75955c8064)"><g clip-path="url(#0459574ff0)"><path fill="#3c50e0" d="M 11.085938 11.144531 L 222.664062 11.144531 L 222.664062 222.722656 L 11.085938 222.722656 Z M 11.085938 11.144531 " fill-opacity="1" fill-rule="nonzero"/></g></g><path fill="#ffffff" d="M 138.484375 98.796875 C 138.484375 98.796875 163.34375 96.691406 167.625 104.289062 C 173.535156 114.761719 176.03125 142.664062 171.589844 148.972656 C 166.195312 156.648438 141.367188 159.238281 141.367188 159.238281 Z M 138.484375 98.796875 " fill-opacity="1" fill-rule="nonzero"/><path fill="#ffffff" d="M 138.484375 98.796875 C 138.484375 98.796875 163.34375 96.691406 167.625 104.289062 C 173.535156 114.761719 176.03125 142.664062 171.589844 148.972656 C 166.195312 156.648438 141.367188 159.238281 141.367188 159.238281 Z M 138.484375 98.796875 " fill-opacity="1" fill-rule="nonzero"/><path fill="#371a45" d="M 124.976562 103.6875 C 124.976562 103.6875 149.832031 101.585938 154.117188 109.183594 C 160.027344 119.65625 162.523438 147.558594 158.082031 153.867188 C 152.6875 161.542969 127.859375 164.132812 127.859375 164.132812 Z M 124.976562 103.6875 " fill-opacity="0.35" fill-rule="nonzero"/><path fill="#371a45" d="M 171.597656 148.972656 C 166.199219 156.648438 141.375 159.238281 141.375 159.238281 L 140.867188 148.613281 C 145.652344 147.808594 164.929688 144.855469 169.328125 138.617188 C 172.082031 134.703125 172.167969 122.476562 170.421875 111.253906 C 174.199219 123.941406 175.246094 143.78125 171.597656 148.972656 Z M 171.597656 148.972656 " fill-opacity="0.35" fill-rule="nonzero"/><path fill="#371a45" d="M 141.375 160.28125 C 141.125 160.28125 140.886719 160.1875 140.695312 160.027344 C 140.480469 159.835938 140.34375 159.570312 140.328125 159.28125 L 137.445312 98.839844 C 137.417969 98.28125 137.84375 97.796875 138.398438 97.753906 C 138.464844 97.746094 144.769531 97.226562 151.519531 97.648438 C 160.855469 98.234375 166.585938 100.292969 168.550781 103.773438 C 174.703125 114.695312 177.117188 142.945312 172.460938 149.566406 C 166.855469 157.535156 142.527344 160.164062 141.492188 160.265625 C 141.449219 160.28125 141.410156 160.28125 141.375 160.28125 Z M 139.582031 99.757812 L 142.371094 158.070312 C 147.183594 157.464844 166.304688 154.6875 170.742188 148.378906 C 172.625 145.703125 173.296875 137.808594 172.449219 128.289062 C 171.578125 118.535156 169.378906 109.535156 166.71875 104.804688 C 163.625 99.316406 146.957031 99.257812 139.582031 99.757812 Z M 139.582031 99.757812 " fill-opacity="1" fill-rule="nonzero"/><path fill="#ffffff" d="M 168.941406 128.394531 L 158.894531 130.09375 C 157.996094 130.246094 157.316406 130.980469 157.238281 131.886719 C 156.949219 135.195312 156.695312 142.867188 160.105469 145.078125 C 162.9375 146.90625 167.1875 146.261719 169.496094 143.917969 C 172.082031 141.289062 171.65625 133.828125 171.265625 130.152344 C 171.144531 129.007812 170.078125 128.203125 168.941406 128.394531 Z M 168.941406 128.394531 " fill-opacity="1" fill-rule="nonzero"/><path fill="#371a45" d="M 157.238281 131.886719 C 156.949219 135.191406 156.695312 142.867188 160.105469 145.070312 C 162.9375 146.902344 167.1875 146.253906 169.496094 143.910156 C 171.085938 142.292969 171.53125 138.847656 171.550781 135.582031 C 171.25 137.242188 170.65625 138.617188 169.84375 139.5625 C 165.207031 144.980469 160.855469 139.511719 160.855469 139.511719 C 160.855469 139.511719 160.328125 140.984375 159.808594 141.113281 C 157.636719 141.65625 157.449219 134.746094 157.433594 131.167969 C 157.332031 131.390625 157.265625 131.632812 157.238281 131.886719 Z M 157.238281 131.886719 " fill-opacity="0.35" fill-rule="nonzero"/><path fill="#371a45" d="M 163.929688 147.175781 C 162.359375 147.175781 160.816406 146.777344 159.535156 145.941406 C 155.78125 143.511719 155.832031 136.03125 156.191406 131.796875 C 156.308594 130.421875 157.351562 129.300781 158.71875 129.066406 L 168.765625 127.363281 C 169.589844 127.226562 170.445312 127.4375 171.113281 127.9375 C 171.78125 128.4375 172.210938 129.207031 172.304688 130.035156 C 172.851562 135.183594 172.945312 141.902344 170.25 144.640625 C 168.621094 146.300781 166.253906 147.175781 163.929688 147.175781 Z M 169.117188 129.421875 L 159.070312 131.125 C 158.644531 131.195312 158.316406 131.546875 158.277344 131.976562 C 157.734375 138.304688 158.632812 142.878906 160.671875 144.203125 C 163.019531 145.722656 166.71875 145.257812 168.75 143.1875 C 170.359375 141.550781 170.910156 136.714844 170.222656 130.257812 C 170.199219 129.996094 170.066406 129.761719 169.851562 129.597656 C 169.640625 129.441406 169.386719 129.378906 169.117188 129.421875 Z M 169.117188 129.421875 " fill-opacity="1" fill-rule="nonzero"/><path fill="#371a45" d="M 164.925781 146.882812 C 164.695312 146.777344 164.578125 146.707031 164.421875 146.609375 C 164.277344 146.515625 164.132812 146.417969 164.003906 146.320312 C 163.734375 146.125 163.484375 145.910156 163.257812 145.683594 C 162.800781 145.226562 162.378906 144.742188 162.039062 144.210938 C 161.339844 143.160156 160.871094 142 160.574219 140.820312 C 160.445312 140.226562 160.320312 139.636719 160.253906 139.042969 C 160.164062 138.441406 160.144531 137.867188 160.105469 137.277344 C 160.078125 136.6875 160.066406 136.097656 160.089844 135.503906 C 160.125 134.902344 160.148438 134.335938 160.3125 133.699219 C 160.351562 133.546875 160.503906 133.464844 160.648438 133.496094 C 160.785156 133.527344 160.875 133.664062 160.851562 133.800781 L 160.84375 133.835938 C 160.765625 134.335938 160.777344 134.9375 160.804688 135.492188 C 160.835938 136.058594 160.894531 136.625 160.972656 137.183594 C 161.058594 137.746094 161.136719 138.320312 161.273438 138.859375 C 161.378906 139.40625 161.550781 139.941406 161.71875 140.46875 C 162.078125 141.511719 162.597656 142.488281 163.269531 143.308594 C 163.589844 143.726562 163.976562 144.09375 164.375 144.417969 C 164.578125 144.582031 164.78125 144.722656 164.996094 144.855469 C 165.101562 144.917969 165.210938 144.980469 165.316406 145.03125 C 165.414062 145.082031 165.554688 145.140625 165.59375 145.148438 C 166.089844 145.277344 166.382812 145.785156 166.246094 146.28125 C 166.117188 146.777344 165.605469 147.070312 165.109375 146.933594 C 165.0625 146.921875 165.015625 146.90625 164.972656 146.886719 Z M 164.925781 146.882812 " fill-opacity="1" fill-rule="nonzero"/><path fill="#371a45" d="M 152.148438 104.417969 C 153.386719 104.132812 154.609375 103.886719 155.84375 103.648438 C 157.082031 103.414062 158.324219 103.199219 159.574219 103.023438 C 160.824219 102.847656 162.078125 102.6875 163.355469 102.59375 C 164.628906 102.503906 165.917969 102.445312 167.253906 102.542969 C 167.828125 102.589844 168.261719 103.082031 168.222656 103.65625 C 168.183594 104.230469 167.679688 104.660156 167.101562 104.621094 C 167.078125 104.621094 167.058594 104.613281 167.03125 104.613281 L 167.019531 104.613281 C 165.867188 104.453125 164.648438 104.417969 163.433594 104.425781 C 162.210938 104.433594 160.980469 104.503906 159.746094 104.59375 C 158.507812 104.6875 157.277344 104.816406 156.042969 104.964844 C 154.8125 105.117188 153.574219 105.285156 152.351562 105.480469 L 152.34375 105.480469 C 152.050781 105.527344 151.777344 105.332031 151.722656 105.039062 C 151.699219 104.746094 151.875 104.476562 152.148438 104.417969 Z M 152.148438 104.417969 " fill-opacity="1" fill-rule="nonzero"/><path fill="#ffffff" d="M 166.121094 173.996094 C 166.121094 173.996094 72.761719 138.402344 74.46875 138.417969 C 75.03125 138.417969 77.113281 134.625 79.664062 129.527344 C 80.507812 127.832031 81.402344 125.996094 82.320312 124.105469 C 84.574219 119.414062 86.910156 114.394531 88.734375 110.433594 C 90.722656 106.113281 92.097656 103.050781 92.097656 103.050781 L 140.492188 95.640625 C 142.074219 97.5625 143.59375 99.640625 145.03125 101.84375 C 148.957031 107.847656 152.351562 114.800781 155.199219 122.175781 C 155.917969 124.035156 156.597656 125.925781 157.246094 127.828125 C 162.589844 143.511719 165.578125 160.460938 166.121094 173.996094 Z M 166.121094 173.996094 " fill-opacity="1" fill-rule="nonzero"/><path fill="#371a45" d="M 166.121094 175.039062 C 165.996094 175.039062 165.867188 175.011719 165.75 174.96875 C 165.519531 174.882812 142.539062 166.117188 119.867188 157.398438 C 106.546875 152.277344 95.945312 148.171875 88.34375 145.195312 C 83.828125 143.425781 80.335938 142.039062 77.960938 141.082031 C 76.679688 140.558594 75.699219 140.15625 75.042969 139.871094 C 73.894531 139.375 73.257812 139.09375 73.421875 138.226562 C 73.488281 137.875 73.742188 137.582031 74.070312 137.453125 C 75.941406 135.5625 85.492188 115.191406 91.148438 102.621094 C 91.292969 102.300781 91.59375 102.074219 91.949219 102.015625 L 140.335938 94.605469 C 140.703125 94.546875 141.066406 94.691406 141.304688 94.976562 C 148.734375 103.976562 155.171875 117.035156 159.933594 132.734375 C 164.023438 146.230469 166.664062 161.25 167.175781 173.957031 C 167.1875 174.308594 167.023438 174.640625 166.738281 174.84375 C 166.554688 174.972656 166.339844 175.039062 166.121094 175.039062 Z M 76.175781 138.089844 C 85.019531 141.851562 140.964844 163.277344 165.003906 172.445312 C 163.714844 148.230469 154.871094 115.074219 140.0625 96.753906 L 92.824219 103.988281 C 91.910156 106.015625 88.449219 113.640625 84.875 121.179688 C 79.859375 131.757812 77.472656 136.214844 76.175781 138.089844 Z M 74.476562 137.375 C 74.480469 137.375 74.480469 137.375 74.476562 137.375 C 74.480469 137.375 74.480469 137.375 74.476562 137.375 Z M 74.476562 137.375 Z M 74.476562 137.375 " fill-opacity="1" fill-rule="nonzero"/><path fill="#371a45" d="M 145.03125 101.84375 C 137.910156 109.996094 128.011719 115.191406 117.394531 116.558594 C 116.558594 116.664062 115.71875 116.75 114.871094 116.808594 C 112.554688 116.96875 110.207031 116.949219 107.855469 116.742188 C 105.90625 116.566406 103.957031 116.261719 102.015625 115.816406 C 99.765625 115.308594 97.519531 114.609375 95.308594 113.726562 C 94.578125 113.425781 93.859375 113.117188 93.152344 112.785156 C 91.707031 112.117188 90.3125 111.371094 88.964844 110.570312 C 88.886719 110.519531 88.800781 110.472656 88.722656 110.425781 C 90.710938 106.105469 92.085938 103.042969 92.085938 103.042969 L 140.480469 95.632812 C 142.074219 97.558594 143.59375 99.636719 145.03125 101.84375 Z M 145.03125 101.84375 " fill-opacity="0.35" fill-rule="nonzero"/><path fill="#ffffff" d="M 71.765625 88.851562 C 75.417969 95.230469 80.675781 100.730469 87.265625 104.6875 C 88.613281 105.496094 90.003906 106.230469 91.449219 106.902344 C 92.15625 107.226562 92.875 107.539062 93.609375 107.839844 C 95.820312 108.726562 98.0625 109.417969 100.3125 109.933594 C 102.257812 110.375 104.207031 110.679688 106.15625 110.859375 C 108.503906 111.074219 110.851562 111.085938 113.167969 110.921875 C 114.011719 110.863281 114.855469 110.78125 115.695312 110.667969 C 131 108.695312 144.816406 98.761719 150.984375 83.488281 C 160.078125 60.980469 149.128906 35.394531 126.539062 26.335938 C 122.1875 24.597656 117.722656 23.585938 113.28125 23.269531 C 112.761719 23.222656 112.238281 23.195312 111.714844 23.183594 C 110.324219 23.132812 108.929688 23.144531 107.550781 23.222656 C 104.355469 23.40625 101.210938 23.9375 98.167969 24.792969 C 95.113281 25.644531 92.171875 26.824219 89.382812 28.296875 C 88.492188 28.769531 87.625 29.261719 86.773438 29.796875 C 85.492188 30.59375 84.25 31.445312 83.050781 32.378906 C 77.066406 36.984375 72.191406 43.195312 69.171875 50.695312 C 63.929688 63.636719 65.335938 77.601562 71.765625 88.851562 Z M 71.765625 88.851562 " fill-opacity="1" fill-rule="nonzero"/><path fill="#371a45" d="M 110.074219 111.132812 C 108.757812 111.132812 107.445312 111.074219 106.144531 110.957031 C 104.160156 110.78125 102.191406 110.464844 100.289062 110.03125 C 98.011719 109.515625 95.753906 108.8125 93.570312 107.929688 C 92.765625 107.605469 92.058594 107.300781 91.40625 106.992188 C 89.984375 106.335938 88.570312 105.585938 87.203125 104.769531 C 80.769531 100.914062 75.398438 95.417969 71.667969 88.898438 C 64.945312 77.128906 63.996094 63.1875 69.058594 50.644531 C 71.996094 43.398438 76.8125 37.050781 82.984375 32.292969 C 84.148438 31.386719 85.40625 30.519531 86.714844 29.707031 C 87.550781 29.183594 88.433594 28.683594 89.332031 28.207031 C 92.125 26.726562 95.082031 25.546875 98.128906 24.695312 C 101.199219 23.835938 104.363281 23.300781 107.535156 23.117188 C 108.917969 23.039062 110.324219 23.027344 111.710938 23.078125 C 112.253906 23.097656 112.78125 23.125 113.273438 23.164062 C 117.804688 23.488281 122.273438 24.519531 126.566406 26.238281 C 149.171875 35.304688 160.167969 61.003906 151.070312 83.527344 C 145.109375 98.285156 131.558594 108.726562 115.695312 110.773438 C 114.863281 110.878906 114.011719 110.960938 113.160156 111.027344 C 112.140625 111.097656 111.101562 111.132812 110.074219 111.132812 Z M 71.859375 88.796875 C 75.566406 95.289062 80.914062 100.75 87.324219 104.59375 C 88.675781 105.410156 90.082031 106.152344 91.496094 106.804688 C 92.144531 107.105469 92.851562 107.410156 93.648438 107.734375 C 95.820312 108.609375 98.070312 109.304688 100.332031 109.820312 C 102.230469 110.257812 104.1875 110.5625 106.164062 110.742188 C 108.464844 110.949219 110.820312 110.976562 113.15625 110.804688 C 114 110.746094 114.84375 110.660156 115.675781 110.550781 C 131.457031 108.519531 144.945312 98.125 150.878906 83.4375 C 159.933594 61.019531 148.996094 35.449219 126.492188 26.421875 C 122.222656 24.714844 117.773438 23.683594 113.265625 23.359375 C 112.777344 23.320312 112.253906 23.292969 111.710938 23.273438 C 110.324219 23.222656 108.921875 23.234375 107.554688 23.3125 C 104.402344 23.496094 101.25 24.023438 98.195312 24.882812 C 95.167969 25.730469 92.222656 26.902344 89.441406 28.375 C 88.546875 28.847656 87.667969 29.355469 86.839844 29.867188 C 85.535156 30.675781 84.289062 31.542969 83.125 32.441406 C 76.972656 37.175781 72.1875 43.496094 69.273438 50.714844 C 64.21875 63.214844 65.167969 77.089844 71.859375 88.796875 Z M 71.859375 88.796875 " fill-opacity="1" fill-rule="nonzero"/><path fill="#371a45" d="M 150.976562 83.480469 C 144.808594 98.761719 130.992188 108.695312 115.6875 110.660156 C 114.847656 110.773438 114.011719 110.851562 113.167969 110.917969 C 110.851562 111.078125 108.503906 111.058594 106.15625 110.851562 C 104.214844 110.675781 102.257812 110.375 100.3125 109.925781 C 98.058594 109.417969 95.820312 108.71875 93.609375 107.832031 C 92.875 107.535156 92.15625 107.226562 91.449219 106.902344 C 90.003906 106.230469 88.613281 105.488281 87.265625 104.679688 C 80.675781 100.722656 75.410156 95.230469 71.765625 88.84375 C 69.765625 85.339844 68.246094 81.566406 67.265625 77.648438 C 70.882812 83.65625 75.964844 88.839844 82.253906 92.609375 C 83.59375 93.417969 84.988281 94.160156 86.441406 94.832031 C 87.140625 95.160156 87.867188 95.472656 88.597656 95.765625 C 90.808594 96.652344 93.054688 97.34375 95.304688 97.855469 C 97.246094 98.300781 99.195312 98.601562 101.144531 98.78125 C 103.492188 98.992188 105.84375 99.011719 108.15625 98.847656 C 109 98.78125 109.84375 98.703125 110.683594 98.59375 C 125.988281 96.617188 139.804688 86.695312 145.972656 71.414062 C 149.578125 62.496094 150.03125 53.101562 147.863281 44.441406 C 154.726562 55.84375 156.34375 70.199219 150.976562 83.480469 Z M 150.976562 83.480469 " fill-opacity="0.35" fill-rule="nonzero"/><g clip-path="url(#1cdd1a4cae)"><path fill="#371a45" d="M 110.066406 111.835938 C 108.726562 111.835938 107.390625 111.777344 106.078125 111.652344 C 104.070312 111.46875 102.066406 111.15625 100.132812 110.714844 C 97.820312 110.191406 95.527344 109.476562 93.308594 108.582031 C 92.492188 108.25 91.769531 107.9375 91.109375 107.632812 C 89.671875 106.96875 88.230469 106.203125 86.851562 105.378906 C 80.308594 101.453125 74.855469 95.875 71.066406 89.25 C 64.230469 77.296875 63.261719 63.128906 68.410156 50.390625 C 71.386719 43.019531 76.273438 36.566406 82.554688 31.738281 C 83.738281 30.820312 85.011719 29.933594 86.339844 29.113281 C 87.199219 28.585938 88.089844 28.070312 89.003906 27.589844 C 91.84375 26.089844 94.84375 24.882812 97.941406 24.023438 C 101.054688 23.144531 104.273438 22.601562 107.492188 22.414062 C 108.890625 22.335938 110.324219 22.316406 111.734375 22.375 C 112.292969 22.394531 112.828125 22.421875 113.332031 22.460938 C 117.929688 22.785156 122.46875 23.839844 126.832031 25.582031 C 149.800781 34.789062 160.972656 60.902344 151.730469 83.78125 C 145.671875 98.777344 131.902344 109.386719 115.792969 111.464844 C 114.949219 111.574219 114.085938 111.660156 113.226562 111.71875 C 112.175781 111.800781 111.121094 111.835938 110.066406 111.835938 Z M 72.472656 88.453125 C 76.125 94.839844 81.382812 100.214844 87.6875 103.996094 C 89.023438 104.796875 90.402344 105.527344 91.796875 106.171875 C 92.4375 106.472656 93.132812 106.773438 93.917969 107.089844 C 96.054688 107.945312 98.265625 108.636719 100.496094 109.144531 C 102.363281 109.574219 104.292969 109.875 106.226562 110.050781 C 108.496094 110.257812 110.808594 110.277344 113.109375 110.113281 C 113.933594 110.054688 114.769531 109.972656 115.589844 109.867188 C 131.117188 107.859375 144.390625 97.636719 150.226562 83.179688 C 159.136719 61.128906 148.367188 35.960938 126.230469 27.085938 C 122.03125 25.40625 117.648438 24.394531 113.214844 24.074219 C 112.730469 24.035156 112.21875 24.011719 111.683594 23.992188 C 110.316406 23.9375 108.941406 23.953125 107.589844 24.03125 C 104.488281 24.210938 101.386719 24.726562 98.378906 25.574219 C 95.394531 26.410156 92.496094 27.570312 89.761719 29.015625 C 88.886719 29.476562 88.023438 29.972656 87.199219 30.480469 C 85.917969 31.277344 84.6875 32.128906 83.546875 33.015625 C 77.496094 37.675781 72.789062 43.894531 69.921875 50.996094 C 64.957031 63.273438 65.886719 76.933594 72.472656 88.453125 Z M 72.472656 88.453125 " fill-opacity="1" fill-rule="nonzero"/></g><g clip-path="url(#f22748560a)"><path fill="#371a45" d="M 110.066406 112.070312 C 108.71875 112.070312 107.378906 112.011719 106.058594 111.886719 C 104.035156 111.703125 102.023438 111.386719 100.078125 110.941406 C 97.757812 110.414062 95.449219 109.699219 93.214844 108.804688 C 92.390625 108.472656 91.671875 108.160156 91.003906 107.847656 C 89.554688 107.175781 88.113281 106.414062 86.722656 105.578125 C 80.148438 101.636719 74.660156 96.03125 70.851562 89.367188 C 63.984375 77.347656 63.015625 63.109375 68.1875 50.296875 C 71.183594 42.890625 76.097656 36.40625 82.402344 31.550781 C 83.59375 30.625 84.875 29.738281 86.210938 28.910156 C 87.066406 28.375 87.96875 27.863281 88.886719 27.378906 C 91.738281 25.867188 94.761719 24.664062 97.867188 23.796875 C 101.007812 22.910156 104.238281 22.367188 107.476562 22.179688 C 108.890625 22.101562 110.324219 22.082031 111.742188 22.140625 C 112.296875 22.160156 112.839844 22.1875 113.351562 22.226562 C 117.96875 22.558594 122.535156 23.613281 126.917969 25.367188 C 150.011719 34.625 161.234375 60.867188 151.945312 83.871094 C 145.863281 98.945312 132.019531 109.613281 115.816406 111.699219 C 114.96875 111.808594 114.097656 111.894531 113.242188 111.957031 C 112.1875 112.035156 111.128906 112.070312 110.066406 112.070312 Z M 72.675781 88.335938 C 76.308594 94.691406 81.539062 100.035156 87.808594 103.792969 C 89.136719 104.589844 90.507812 105.320312 91.894531 105.957031 C 92.53125 106.257812 93.222656 106.554688 94.007812 106.875 C 96.132812 107.730469 98.332031 108.414062 100.550781 108.914062 C 102.40625 109.339844 104.324219 109.644531 106.253906 109.816406 C 108.511719 110.015625 110.8125 110.042969 113.097656 109.878906 C 113.921875 109.820312 114.746094 109.738281 115.5625 109.632812 C 131.007812 107.636719 144.207031 97.472656 150.011719 83.097656 C 158.875 61.160156 148.164062 36.132812 126.148438 27.300781 C 121.964844 25.625 117.609375 24.625 113.199219 24.304688 C 112.71875 24.265625 112.207031 24.238281 111.683594 24.21875 C 110.324219 24.167969 108.957031 24.179688 107.609375 24.257812 C 104.519531 24.433594 101.4375 24.957031 98.449219 25.796875 C 95.488281 26.625 92.601562 27.777344 89.878906 29.21875 C 89.003906 29.679688 88.148438 30.167969 87.328125 30.675781 C 86.054688 31.472656 84.832031 32.320312 83.699219 33.199219 C 77.679688 37.832031 72.996094 44.015625 70.144531 51.082031 C 65.199219 63.300781 66.128906 76.875 72.675781 88.335938 Z M 72.675781 88.335938 " fill-opacity="1" fill-rule="nonzero"/></g><path fill="#371a45" d="M 78.570312 97.835938 C 104.78125 115.269531 139.640625 101.714844 140.832031 70.644531 C 141.644531 49.503906 121.496094 32.390625 101.066406 32.914062 C 86.199219 33.289062 71.84375 40.144531 66.128906 63.292969 C 66.128906 63.292969 65.1875 73.929688 68.222656 80.941406 C 71.257812 87.953125 75.402344 94.246094 75.402344 94.246094 Z M 78.570312 97.835938 " fill-opacity="1" fill-rule="nonzero"/><path fill="#220f2d" d="M 140.832031 70.644531 C 139.636719 101.714844 104.777344 115.269531 78.570312 97.835938 L 77.929688 97.109375 C 106.457031 101.558594 134.414062 84.015625 136.207031 52.617188 C 139.339844 57.980469 141.082031 64.121094 140.832031 70.644531 Z M 140.832031 70.644531 " fill-opacity="1" fill-rule="nonzero"/><path fill="#371a45" d="M 103.394531 111.074219 C 102.347656 111.074219 101.300781 111.039062 100.25 110.96875 C 100.195312 110.960938 100.136719 110.957031 100.085938 110.941406 C 97.761719 110.414062 95.453125 109.699219 93.222656 108.804688 C 92.398438 108.472656 91.679688 108.160156 91.011719 107.847656 C 89.558594 107.175781 88.121094 106.414062 86.726562 105.578125 C 80.152344 101.636719 74.664062 96.03125 70.859375 89.367188 C 63.988281 77.347656 63.019531 63.109375 68.195312 50.296875 C 71.183594 42.894531 76.097656 36.40625 82.410156 31.550781 C 82.46875 31.503906 82.527344 31.464844 82.59375 31.441406 C 87.828125 28.917969 93.929688 27.550781 100.746094 27.375 C 112.878906 27.066406 125.472656 32.265625 134.414062 41.292969 C 142.632812 49.582031 146.929688 60.085938 146.515625 70.871094 C 146.066406 82.589844 141.472656 92.6875 133.246094 100.085938 C 125.367188 107.148438 114.628906 111.074219 103.394531 111.074219 Z M 100.464844 108.894531 C 112.238281 109.640625 123.667969 105.867188 131.839844 98.527344 C 139.640625 91.523438 143.992188 81.929688 144.425781 70.785156 C 144.816406 60.589844 140.734375 50.632812 132.925781 42.753906 C 124.378906 34.132812 112.371094 29.160156 100.796875 29.453125 C 94.328125 29.613281 88.539062 30.898438 83.601562 33.265625 C 77.628906 37.890625 72.96875 44.050781 70.132812 51.082031 C 65.199219 63.300781 66.121094 76.875 72.667969 88.335938 C 76.300781 94.691406 81.535156 100.035156 87.800781 103.792969 C 89.128906 104.589844 90.503906 105.320312 91.890625 105.957031 C 92.523438 106.257812 93.214844 106.554688 94 106.875 C 96.101562 107.714844 98.273438 108.394531 100.464844 108.894531 Z M 100.464844 108.894531 " fill-opacity="1" fill-rule="nonzero"/><path fill="#371a45" d="M 103.488281 106.574219 C 94.742188 106.574219 85.816406 103.917969 77.988281 98.710938 C 77.910156 98.660156 77.84375 98.601562 77.785156 98.527344 L 74.621094 94.9375 C 74.585938 94.898438 74.558594 94.859375 74.527344 94.820312 C 74.488281 94.753906 70.300781 88.363281 67.261719 81.355469 C 64.152344 74.1875 65.042969 63.652344 65.082031 63.207031 C 65.089844 63.15625 65.09375 63.105469 65.109375 63.050781 C 70.097656 42.84375 82.1875 32.359375 101.035156 31.875 C 111.859375 31.597656 123.09375 36.242188 131.074219 44.289062 C 138.40625 51.691406 142.246094 61.0625 141.871094 70.6875 C 141.335938 84.589844 134.113281 96.070312 122.058594 102.203125 C 116.300781 105.128906 109.945312 106.574219 103.488281 106.574219 Z M 79.261719 97.050781 C 92.230469 105.617188 108.25 106.882812 121.109375 100.347656 C 132.472656 94.566406 139.28125 83.730469 139.785156 70.605469 C 140.132812 61.558594 136.515625 52.734375 129.585938 45.75 C 122.007812 38.097656 111.351562 33.695312 101.09375 33.953125 C 83.324219 34.410156 71.910156 44.335938 67.160156 63.460938 C 67.089844 64.425781 66.417969 74.148438 69.183594 80.523438 C 71.988281 87 75.808594 92.957031 76.242188 93.613281 Z M 79.261719 97.050781 " fill-opacity="1" fill-rule="nonzero"/><path fill="#ffffff" d="M 150.253906 85.410156 C 143.960938 86.226562 138.28125 79.882812 137.566406 71.242188 C 137.535156 70.871094 137.515625 70.5 137.507812 70.136719 C 137.246094 61.964844 141.644531 54.914062 147.667969 54.136719 C 153.953125 53.324219 159.632812 59.664062 160.351562 68.304688 C 160.367188 68.433594 160.371094 68.570312 160.378906 68.703125 C 160.921875 77.167969 156.441406 84.609375 150.253906 85.410156 Z M 150.253906 85.410156 " fill-opacity="1" fill-rule="nonzero"/><path fill="#371a45" d="M 150.253906 85.410156 C 143.960938 86.226562 138.28125 79.882812 137.566406 71.242188 C 137.535156 70.871094 137.515625 70.5 137.507812 70.136719 C 139.066406 71.691406 141.644531 73.0625 143.992188 68.695312 L 160.378906 68.695312 C 160.921875 77.167969 156.441406 84.609375 150.253906 85.410156 Z M 150.253906 85.410156 " fill-opacity="0.35" fill-rule="nonzero"/><path fill="#371a45" d="M 149.148438 86.523438 C 146.855469 86.523438 144.625 85.695312 142.636719 84.09375 C 139.191406 81.316406 136.960938 76.664062 136.523438 71.335938 C 135.761719 62.164062 140.703125 53.988281 147.523438 53.105469 C 150.246094 52.753906 152.921875 53.570312 155.269531 55.460938 C 158.71875 58.234375 160.949219 62.890625 161.386719 68.21875 C 162.144531 77.386719 157.207031 85.566406 150.382812 86.445312 C 149.972656 86.5 149.558594 86.523438 149.148438 86.523438 Z M 148.746094 55.109375 C 148.433594 55.109375 148.113281 55.128906 147.792969 55.167969 C 142.0625 55.910156 137.941406 63.078125 138.609375 71.152344 C 138.996094 75.851562 140.996094 80.078125 143.960938 82.464844 C 145.851562 83.988281 147.984375 84.648438 150.113281 84.367188 C 155.84375 83.625 159.964844 76.457031 159.300781 68.382812 C 158.914062 63.683594 156.910156 59.453125 153.949219 57.070312 C 152.339844 55.777344 150.558594 55.109375 148.746094 55.109375 Z M 148.746094 55.109375 " fill-opacity="1" fill-rule="nonzero"/><path fill="#ffffff" d="M 152.800781 58.304688 C 153.414062 58.308594 154.019531 58.390625 154.621094 58.550781 C 155.21875 58.714844 155.800781 58.953125 156.367188 59.269531 C 156.933594 59.585938 157.46875 59.96875 157.976562 60.425781 C 158.484375 60.882812 158.953125 61.402344 159.382812 61.984375 C 159.816406 62.566406 160.199219 63.195312 160.535156 63.878906 C 160.875 64.558594 161.160156 65.28125 161.390625 66.035156 C 161.621094 66.792969 161.796875 67.574219 161.910156 68.378906 C 162.027344 69.179688 162.082031 69.992188 162.078125 70.8125 C 162.078125 71.628906 162.011719 72.441406 161.890625 73.242188 C 161.765625 74.042969 161.585938 74.824219 161.347656 75.578125 C 161.109375 76.332031 160.820312 77.050781 160.476562 77.730469 C 160.132812 78.410156 159.742188 79.035156 159.308594 79.613281 C 158.871094 80.191406 158.398438 80.707031 157.886719 81.15625 C 157.375 81.609375 156.835938 81.992188 156.265625 82.304688 C 155.699219 82.613281 155.113281 82.847656 154.511719 83.003906 C 153.910156 83.160156 153.304688 83.238281 152.691406 83.238281 C 152.078125 83.234375 151.472656 83.152344 150.871094 82.988281 C 150.269531 82.828125 149.6875 82.589844 149.121094 82.273438 C 148.558594 81.957031 148.019531 81.570312 147.515625 81.113281 C 147.007812 80.65625 146.535156 80.136719 146.105469 79.558594 C 145.675781 78.976562 145.289062 78.34375 144.953125 77.664062 C 144.617188 76.980469 144.332031 76.261719 144.101562 75.503906 C 143.867188 74.746094 143.695312 73.964844 143.578125 73.164062 C 143.464844 72.359375 143.40625 71.546875 143.410156 70.730469 C 143.414062 69.910156 143.476562 69.101562 143.601562 68.296875 C 143.722656 67.496094 143.902344 66.71875 144.140625 65.960938 C 144.378906 65.207031 144.671875 64.488281 145.015625 63.8125 C 145.355469 63.132812 145.746094 62.503906 146.183594 61.925781 C 146.617188 61.351562 147.09375 60.835938 147.605469 60.382812 C 148.117188 59.929688 148.65625 59.546875 149.222656 59.238281 C 149.789062 58.925781 150.375 58.691406 150.976562 58.535156 C 151.578125 58.378906 152.1875 58.300781 152.800781 58.304688 Z M 152.800781 58.304688 " fill-opacity="1" fill-rule="nonzero"/><path fill="#371a45" d="M 152.726562 83.359375 C 151.761719 83.359375 150.800781 83.15625 149.859375 82.757812 C 144.90625 80.667969 142.160156 73.589844 143.738281 66.988281 C 144.621094 63.292969 146.6875 60.378906 149.421875 59.003906 C 151.429688 57.996094 153.574219 57.917969 155.621094 58.785156 C 160.574219 60.875 163.324219 67.953125 161.746094 74.554688 C 160.863281 78.25 158.796875 81.160156 156.0625 82.535156 C 154.976562 83.082031 153.851562 83.359375 152.726562 83.359375 Z M 152.757812 58.410156 C 151.664062 58.410156 150.574219 58.679688 149.519531 59.207031 C 146.851562 60.550781 144.816406 63.410156 143.953125 67.046875 C 142.402344 73.550781 145.089844 80.515625 149.945312 82.570312 C 151.933594 83.410156 154.015625 83.332031 155.957031 82.355469 C 158.625 81.011719 160.660156 78.152344 161.523438 74.515625 C 163.074219 68.011719 160.386719 61.042969 155.53125 58.992188 C 154.621094 58.601562 153.691406 58.410156 152.757812 58.410156 Z M 152.757812 58.410156 " fill-opacity="1" fill-rule="nonzero"/><path fill="#371a45" d="M 144.390625 76.761719 C 143.625 74.527344 143.476562 72.078125 143.839844 69.730469 C 146.019531 74.683594 150.839844 76.378906 155.015625 73.476562 C 157.710938 71.609375 159.515625 68.246094 160.078125 64.617188 C 160.214844 64.929688 160.347656 65.253906 160.457031 65.59375 C 162.40625 71.289062 160.386719 78.40625 155.949219 81.488281 C 151.507812 84.570312 146.335938 82.453125 144.390625 76.761719 Z M 144.390625 76.761719 " fill-opacity="0.35" fill-rule="nonzero"/><path fill="#371a45" d="M 152.960938 84.296875 C 151.273438 84.296875 149.625 83.683594 148.140625 82.492188 C 145.359375 80.261719 143.488281 76.226562 143.128906 71.707031 C 142.535156 64.132812 146.339844 57.382812 151.613281 56.660156 C 153.628906 56.386719 155.621094 56.984375 157.390625 58.398438 C 160.167969 60.628906 162.039062 64.660156 162.398438 69.183594 C 162.996094 76.757812 159.1875 83.507812 153.914062 84.230469 C 153.59375 84.277344 153.273438 84.296875 152.960938 84.296875 Z M 152.554688 58.679688 C 152.339844 58.679688 152.117188 58.691406 151.902344 58.726562 C 147.703125 59.296875 144.707031 65.050781 145.214844 71.542969 C 145.53125 75.503906 147.113281 78.992188 149.453125 80.867188 C 150.757812 81.910156 152.203125 82.359375 153.628906 82.164062 C 157.828125 81.589844 160.824219 75.835938 160.3125 69.347656 C 160 65.382812 158.417969 61.898438 156.074219 60.019531 C 154.976562 59.140625 153.765625 58.679688 152.554688 58.679688 Z M 152.554688 58.679688 " fill-opacity="1" fill-rule="nonzero"/><path fill="#ffffff" d="M 111.761719 40.375 C 111.761719 40.375 91.808594 42.152344 81.113281 53.894531 C 81.101562 53.910156 81.09375 53.921875 81.082031 53.933594 C 78.832031 56.40625 77.292969 59.441406 76.609375 62.710938 C 75.699219 67.035156 75.710938 70.140625 75.828125 72.878906 C 76.183594 81.199219 77.910156 85.039062 77.910156 85.039062 C 72.96875 80.84375 70.078125 75.960938 69.71875 69.027344 C 69.6875 68.34375 69.671875 67.640625 69.6875 66.917969 C 69.6875 66.746094 69.695312 66.582031 69.707031 66.414062 C 69.699219 66.414062 69.707031 66.40625 69.707031 66.402344 C 69.835938 64.933594 70.078125 63.011719 70.539062 60.867188 C 71.910156 54.402344 75.203125 45.90625 83.089844 41.695312 C 97.835938 33.824219 112.410156 39.472656 111.761719 40.375 Z M 111.761719 40.375 " fill-opacity="0.7" fill-rule="nonzero"/><g mask="url(#9e2045c2d0)"><g transform="matrix(1, 0, 0, 1, 119, 51)"><g clip-path="url(#7120232487)"><path fill="#ffffff" d="M 14.117188 7.472656 C 14.25 7.902344 14.347656 8.335938 14.410156 8.78125 C 14.46875 9.222656 14.492188 9.664062 14.472656 10.105469 C 14.457031 10.546875 14.402344 10.976562 14.308594 11.394531 C 14.21875 11.816406 14.085938 12.21875 13.921875 12.605469 C 13.757812 12.988281 13.558594 13.347656 13.324219 13.683594 C 13.09375 14.015625 12.832031 14.320312 12.542969 14.589844 C 12.253906 14.859375 11.941406 15.09375 11.605469 15.289062 C 11.269531 15.488281 10.917969 15.644531 10.546875 15.757812 C 10.179688 15.875 9.800781 15.945312 9.410156 15.976562 C 9.023438 16.003906 8.632812 15.992188 8.238281 15.933594 C 7.847656 15.875 7.457031 15.777344 7.078125 15.632812 C 6.695312 15.492188 6.324219 15.308594 5.96875 15.089844 C 5.613281 14.867188 5.273438 14.609375 4.957031 14.316406 C 4.640625 14.023438 4.347656 13.703125 4.082031 13.351562 C 3.816406 13 3.582031 12.625 3.378906 12.226562 C 3.171875 11.828125 3.003906 11.414062 2.867188 10.984375 C 2.734375 10.558594 2.636719 10.121094 2.574219 9.679688 C 2.515625 9.234375 2.492188 8.792969 2.511719 8.355469 C 2.527344 7.914062 2.582031 7.484375 2.675781 7.0625 C 2.765625 6.640625 2.898438 6.238281 3.0625 5.855469 C 3.226562 5.46875 3.425781 5.109375 3.660156 4.777344 C 3.890625 4.441406 4.152344 4.140625 4.441406 3.871094 C 4.730469 3.597656 5.042969 3.367188 5.378906 3.167969 C 5.714844 2.972656 6.066406 2.816406 6.4375 2.699219 C 6.808594 2.585938 7.183594 2.511719 7.574219 2.484375 C 7.960938 2.453125 8.351562 2.46875 8.746094 2.523438 C 9.140625 2.582031 9.527344 2.683594 9.90625 2.824219 C 10.289062 2.96875 10.660156 3.148438 11.015625 3.371094 C 11.371094 3.59375 11.710938 3.847656 12.027344 4.140625 C 12.34375 4.433594 12.636719 4.757812 12.902344 5.109375 C 13.167969 5.460938 13.402344 5.835938 13.605469 6.234375 C 13.8125 6.632812 13.980469 7.042969 14.117188 7.472656 Z M 14.117188 7.472656 " fill-opacity="1" fill-rule="nonzero"/></g></g></g><g mask="url(#06e74a2c1a)"><g transform="matrix(1, 0, 0, 1, 127, 68)"><g clip-path="url(#4fd441780f)"><path fill="#ffffff" d="M 6.476562 3.191406 C 6.617188 3.539062 6.699219 3.898438 6.714844 4.265625 C 6.734375 4.632812 6.6875 4.980469 6.578125 5.3125 C 6.464844 5.644531 6.300781 5.933594 6.078125 6.179688 C 5.855469 6.421875 5.597656 6.605469 5.296875 6.726562 C 5 6.851562 4.683594 6.902344 4.355469 6.878906 C 4.023438 6.859375 3.703125 6.769531 3.390625 6.609375 C 3.078125 6.449219 2.800781 6.234375 2.554688 5.960938 C 2.308594 5.6875 2.113281 5.375 1.972656 5.027344 C 1.828125 4.679688 1.75 4.324219 1.730469 3.957031 C 1.714844 3.589844 1.761719 3.238281 1.871094 2.910156 C 1.980469 2.578125 2.148438 2.289062 2.367188 2.042969 C 2.589844 1.796875 2.851562 1.613281 3.148438 1.492188 C 3.449219 1.371094 3.761719 1.320312 4.09375 1.339844 C 4.421875 1.363281 4.746094 1.453125 5.058594 1.609375 C 5.367188 1.769531 5.648438 1.988281 5.894531 2.261719 C 6.140625 2.535156 6.332031 2.847656 6.476562 3.191406 Z M 6.476562 3.191406 " fill-opacity="1" fill-rule="nonzero"/></g></g></g><path fill="#371a45" d="M 91.351562 132.589844 C 91.261719 132.589844 91.164062 132.578125 91.070312 132.550781 C 90.515625 132.394531 90.1875 131.820312 90.34375 131.269531 C 92 125.363281 92.027344 112.160156 92.027344 112.03125 C 92.027344 111.457031 92.496094 110.988281 93.074219 110.988281 C 93.648438 110.988281 94.121094 111.457031 94.121094 112.03125 C 94.121094 112.585938 94.101562 125.648438 92.367188 131.828125 C 92.230469 132.289062 91.808594 132.589844 91.351562 132.589844 Z M 91.351562 132.589844 " fill-opacity="1" fill-rule="nonzero"/><path fill="#371a45" d="M 135.828125 126.730469 C 135.632812 126.730469 135.441406 126.679688 135.265625 126.570312 C 134.78125 126.257812 134.636719 125.609375 134.953125 125.128906 C 136.003906 123.492188 134.636719 118.753906 133.53125 116.15625 C 133.308594 115.628906 133.550781 115.015625 134.089844 114.785156 C 134.625 114.558594 135.234375 114.804688 135.460938 115.339844 C 135.800781 116.128906 138.707031 123.167969 136.71875 126.257812 C 136.507812 126.5625 136.167969 126.730469 135.828125 126.730469 Z M 135.828125 126.730469 " fill-opacity="1" fill-rule="nonzero"/><path fill="#ffffff" d="M 97.613281 131.046875 C 97.613281 131.332031 97.585938 131.613281 97.527344 131.890625 C 97.472656 132.167969 97.390625 132.4375 97.28125 132.703125 C 97.171875 132.964844 97.039062 133.214844 96.878906 133.449219 C 96.722656 133.6875 96.542969 133.90625 96.339844 134.105469 C 96.140625 134.304688 95.917969 134.484375 95.683594 134.644531 C 95.445312 134.800781 95.195312 134.933594 94.929688 135.042969 C 94.667969 135.152344 94.394531 135.234375 94.117188 135.289062 C 93.835938 135.34375 93.554688 135.375 93.269531 135.375 C 92.984375 135.375 92.703125 135.34375 92.421875 135.289062 C 92.140625 135.234375 91.871094 135.152344 91.605469 135.042969 C 91.34375 134.933594 91.09375 134.800781 90.855469 134.644531 C 90.617188 134.484375 90.398438 134.304688 90.199219 134.105469 C 89.996094 133.90625 89.816406 133.6875 89.65625 133.449219 C 89.5 133.214844 89.367188 132.964844 89.257812 132.703125 C 89.148438 132.4375 89.066406 132.167969 89.007812 131.890625 C 88.953125 131.613281 88.925781 131.332031 88.925781 131.046875 C 88.925781 130.761719 88.953125 130.480469 89.007812 130.203125 C 89.066406 129.921875 89.148438 129.652344 89.257812 129.390625 C 89.367188 129.128906 89.5 128.878906 89.65625 128.640625 C 89.816406 128.40625 89.996094 128.1875 90.199219 127.988281 C 90.398438 127.785156 90.617188 127.605469 90.855469 127.449219 C 91.09375 127.289062 91.34375 127.15625 91.605469 127.046875 C 91.871094 126.941406 92.140625 126.859375 92.421875 126.800781 C 92.703125 126.746094 92.984375 126.71875 93.269531 126.71875 C 93.554688 126.71875 93.835938 126.746094 94.117188 126.800781 C 94.394531 126.859375 94.667969 126.941406 94.929688 127.046875 C 95.195312 127.15625 95.445312 127.289062 95.683594 127.449219 C 95.917969 127.605469 96.140625 127.785156 96.339844 127.988281 C 96.542969 128.1875 96.722656 128.40625 96.878906 128.640625 C 97.039062 128.878906 97.171875 129.128906 97.28125 129.390625 C 97.390625 129.652344 97.472656 129.921875 97.527344 130.203125 C 97.585938 130.480469 97.613281 130.761719 97.613281 131.046875 Z M 97.613281 131.046875 " fill-opacity="1" fill-rule="nonzero"/><path fill="#371a45" d="M 88.933594 131.195312 C 89.015625 133.582031 91.03125 135.453125 93.425781 135.367188 C 95.828125 135.28125 97.699219 133.273438 97.613281 130.882812 C 97.585938 130.226562 97.417969 129.597656 97.128906 129.050781 C 96.488281 130.539062 95.023438 131.605469 93.296875 131.664062 C 91.566406 131.722656 90.03125 130.765625 89.285156 129.332031 C 89.03125 129.90625 88.90625 130.539062 88.933594 131.195312 Z M 88.933594 131.195312 " fill-opacity="0.35" fill-rule="nonzero"/><path fill="#371a45" d="M 93.269531 136.410156 C 90.382812 136.410156 87.988281 134.128906 87.886719 131.234375 C 87.78125 128.277344 90.109375 125.78125 93.078125 125.675781 C 96.054688 125.558594 98.554688 127.890625 98.660156 130.851562 C 98.710938 132.285156 98.203125 133.652344 97.21875 134.703125 C 96.238281 135.75 94.90625 136.355469 93.464844 136.410156 C 93.398438 136.410156 93.335938 136.410156 93.269531 136.410156 Z M 93.269531 127.761719 C 93.230469 127.761719 93.191406 127.761719 93.152344 127.761719 C 91.332031 127.828125 89.90625 129.351562 89.972656 131.164062 C 90.039062 132.976562 91.566406 134.394531 93.386719 134.332031 C 94.261719 134.296875 95.082031 133.925781 95.683594 133.289062 C 96.285156 132.644531 96.597656 131.808594 96.566406 130.933594 C 96.5 129.15625 95.035156 127.761719 93.269531 127.761719 Z M 93.269531 127.761719 " fill-opacity="1" fill-rule="nonzero"/><path fill="#ffffff" d="M 98.183594 141.609375 L 121.136719 142.148438 C 123.851562 142.214844 126.132812 140.050781 126.191406 137.339844 L 126.480469 125.175781 C 126.539062 122.800781 124.878906 120.769531 122.640625 120.261719 C 122.320312 120.1875 121.992188 120.144531 121.652344 120.136719 L 98.699219 119.597656 C 95.976562 119.53125 93.699219 121.695312 93.640625 124.40625 L 93.414062 134.042969 L 93.355469 136.570312 C 93.289062 139.277344 95.460938 141.542969 98.183594 141.609375 Z M 98.183594 141.609375 " fill-opacity="1" fill-rule="nonzero"/><path fill="#371a45" d="M 98.183594 141.609375 L 121.136719 142.148438 C 123.851562 142.214844 126.132812 140.050781 126.191406 137.339844 L 126.480469 125.175781 C 126.539062 122.800781 124.878906 120.769531 122.640625 120.261719 C 121.320312 121.09375 120.476562 121.621094 120.476562 121.621094 C 119.128906 131.367188 116.214844 136.167969 104.035156 136.082031 C 98.777344 136.042969 95.480469 135.164062 93.414062 134.042969 L 93.355469 136.570312 C 93.289062 139.277344 95.460938 141.542969 98.183594 141.609375 Z M 98.183594 141.609375 " fill-opacity="0.35" fill-rule="nonzero"/><path fill="#371a45" d="M 121.253906 143.191406 C 121.207031 143.191406 121.15625 143.191406 121.109375 143.191406 L 98.15625 142.652344 C 94.851562 142.574219 92.230469 139.835938 92.308594 136.546875 L 92.59375 124.371094 C 92.632812 122.78125 93.296875 121.304688 94.453125 120.203125 C 95.617188 119.101562 97.136719 118.515625 98.726562 118.546875 L 121.679688 119.089844 C 124.984375 119.167969 127.605469 121.902344 127.527344 125.195312 L 127.238281 137.367188 C 127.199219 138.957031 126.539062 140.4375 125.382812 141.539062 C 124.257812 142.605469 122.796875 143.191406 121.253906 143.191406 Z M 98.585938 120.632812 C 97.585938 120.632812 96.636719 121.011719 95.90625 121.707031 C 95.148438 122.425781 94.722656 123.390625 94.695312 124.417969 L 94.40625 136.589844 C 94.355469 138.730469 96.0625 140.515625 98.214844 140.566406 L 121.167969 141.109375 C 122.203125 141.132812 123.191406 140.75 123.949219 140.03125 C 124.707031 139.316406 125.132812 138.351562 125.160156 137.320312 L 125.445312 125.148438 C 125.5 123.011719 123.792969 121.226562 121.640625 121.171875 L 98.683594 120.632812 C 98.644531 120.632812 98.613281 120.632812 98.585938 120.632812 Z M 98.585938 120.632812 " fill-opacity="1" fill-rule="nonzero"/><path fill="#ffffff" d="M 97.257812 141.5 C 97.554688 141.570312 97.859375 141.601562 98.183594 141.609375 L 121.136719 142.148438 C 123.125 142.195312 124.882812 141.050781 125.703125 139.359375 C 126.003906 138.75 126.179688 138.0625 126.191406 137.339844 L 126.324219 131.933594 L 126.371094 130.148438 L 126.488281 125.167969 C 126.550781 122.457031 124.378906 120.1875 121.660156 120.128906 L 116.699219 120.011719 C 118.976562 120.496094 120.671875 122.546875 120.613281 124.941406 L 120.457031 131.515625 L 120.324219 137.113281 C 120.257812 139.816406 117.984375 141.988281 115.269531 141.921875 Z M 97.257812 141.5 " fill-opacity="1" fill-rule="nonzero"/><path fill="#371a45" d="M 97.257812 141.5 C 97.554688 141.570312 97.859375 141.601562 98.183594 141.609375 L 121.136719 142.148438 C 123.851562 142.214844 126.132812 140.050781 126.191406 137.339844 L 126.363281 130.152344 C 125.753906 131.410156 124.679688 132.941406 123.019531 133.074219 C 122.109375 133.144531 121.226562 132.464844 120.457031 131.523438 L 120.324219 137.121094 C 120.257812 139.824219 117.984375 141.992188 115.269531 141.929688 Z M 97.257812 141.5 " fill-opacity="0.35" fill-rule="nonzero"/><path fill="#371a45" d="M 121.253906 143.191406 C 121.203125 143.191406 121.15625 143.191406 121.109375 143.191406 L 98.15625 142.652344 C 97.78125 142.644531 97.402344 142.601562 97.03125 142.515625 C 96.507812 142.398438 96.152344 141.902344 96.21875 141.367188 C 96.285156 140.832031 96.75 140.449219 97.285156 140.457031 L 115.289062 140.878906 C 116.320312 140.90625 117.308594 140.519531 118.0625 139.804688 C 118.820312 139.085938 119.246094 138.125 119.273438 137.09375 L 119.558594 124.921875 C 119.605469 123.058594 118.304688 121.421875 116.472656 121.035156 C 115.941406 120.925781 115.589844 120.429688 115.652344 119.894531 C 115.71875 119.363281 116.183594 118.972656 116.71875 118.976562 L 121.679688 119.09375 C 124.984375 119.171875 127.605469 121.917969 127.527344 125.199219 L 127.238281 137.375 C 127.199219 138.964844 126.546875 140.441406 125.382812 141.550781 C 124.257812 142.605469 122.796875 143.191406 121.253906 143.191406 Z M 119.75 141.074219 L 121.164062 141.109375 C 122.195312 141.132812 123.183594 140.75 123.9375 140.03125 C 124.695312 139.316406 125.121094 138.351562 125.144531 137.320312 L 125.433594 125.148438 C 125.484375 123.011719 123.777344 121.226562 121.625 121.171875 L 120.371094 121.148438 C 121.207031 122.210938 121.683594 123.546875 121.652344 124.972656 L 121.363281 137.144531 C 121.332031 138.617188 120.761719 140 119.75 141.074219 Z M 119.75 141.074219 " fill-opacity="1" fill-rule="nonzero"/><path fill="#22a7f0" d="M 111.414062 130.914062 C 111.410156 131.367188 111.976562 135.007812 111.976562 135.007812 C 111.976562 135.007812 113.136719 135.027344 114.546875 135.054688 C 116.320312 135.085938 117.792969 133.28125 117.832031 131.027344 C 117.871094 128.773438 116.472656 126.914062 114.699219 126.886719 C 113.503906 126.867188 112.128906 126.84375 112.128906 126.84375 C 112.128906 126.84375 111.429688 130.1875 111.414062 130.914062 Z M 111.414062 130.914062 " fill-opacity="1" fill-rule="nonzero"/><path fill="#371a45" d="M 111.414062 130.914062 C 111.410156 131.367188 111.976562 135.007812 111.976562 135.007812 C 111.976562 135.007812 113.136719 135.027344 114.546875 135.054688 C 116.320312 135.085938 117.792969 133.28125 117.832031 131.027344 C 117.871094 128.773438 116.472656 126.914062 114.699219 126.886719 C 113.503906 126.867188 112.128906 126.84375 112.128906 126.84375 C 112.128906 126.84375 111.429688 130.1875 111.414062 130.914062 Z M 111.414062 130.914062 " fill-opacity="0.35" fill-rule="nonzero"/><path fill="#371a45" d="M 114.59375 135.84375 C 114.574219 135.84375 114.554688 135.84375 114.535156 135.84375 L 111.964844 135.796875 C 111.585938 135.789062 111.265625 135.511719 111.207031 135.136719 C 111.03125 134.023438 110.625 131.378906 110.636719 130.910156 C 110.648438 130.140625 111.246094 127.261719 111.363281 126.691406 C 111.441406 126.328125 111.769531 126.0625 112.148438 126.066406 L 114.71875 126.113281 C 116.921875 126.152344 118.675781 128.367188 118.625 131.050781 C 118.566406 133.703125 116.773438 135.84375 114.59375 135.84375 Z M 112.652344 134.238281 L 114.5625 134.273438 C 115.902344 134.292969 117.015625 132.832031 117.046875 131.011719 C 117.082031 129.195312 116.019531 127.691406 114.679688 127.671875 L 112.757812 127.636719 C 112.507812 128.890625 112.199219 130.519531 112.195312 130.929688 C 112.199219 131.183594 112.417969 132.714844 112.652344 134.238281 Z M 112.652344 134.238281 " fill-opacity="1" fill-rule="nonzero"/><path fill="#22a7f0" d="M 112.113281 126.851562 C 112.539062 126.859375 112.949219 126.96875 113.335938 127.183594 C 113.726562 127.398438 114.070312 127.699219 114.363281 128.085938 C 114.65625 128.476562 114.882812 128.921875 115.035156 129.425781 C 115.191406 129.929688 115.261719 130.449219 115.25 130.992188 C 115.242188 131.535156 115.152344 132.054688 114.980469 132.550781 C 114.808594 133.050781 114.566406 133.488281 114.257812 133.863281 C 113.953125 134.242188 113.597656 134.53125 113.203125 134.730469 C 112.804688 134.933594 112.394531 135.027344 111.96875 135.019531 C 111.542969 135.011719 111.132812 134.902344 110.742188 134.6875 C 110.355469 134.472656 110.011719 134.171875 109.71875 133.785156 C 109.425781 133.394531 109.199219 132.949219 109.046875 132.445312 C 108.890625 131.941406 108.820312 131.417969 108.828125 130.878906 C 108.839844 130.335938 108.929688 129.816406 109.101562 129.320312 C 109.273438 128.820312 109.515625 128.382812 109.820312 128.007812 C 110.128906 127.628906 110.484375 127.339844 110.878906 127.140625 C 111.277344 126.9375 111.6875 126.84375 112.113281 126.851562 Z M 112.113281 126.851562 " fill-opacity="1" fill-rule="nonzero"/><path fill="#371a45" d="M 115.253906 130.980469 C 115.214844 133.234375 113.742188 135.039062 111.972656 135.007812 C 110.199219 134.976562 108.792969 133.125 108.839844 130.871094 C 108.84375 130.464844 108.898438 130.074219 108.996094 129.710938 C 109.402344 131.320312 110.570312 132.484375 111.976562 132.511719 C 113.429688 132.539062 114.6875 131.328125 115.109375 129.644531 C 115.210938 130.070312 115.269531 130.519531 115.253906 130.980469 Z M 115.253906 130.980469 " fill-opacity="0.35" fill-rule="nonzero"/><path fill="#ffffff" d="M 115.253906 130.980469 C 115.25 131.242188 115.230469 131.496094 115.183594 131.738281 C 114.875 129.933594 113.632812 128.570312 112.117188 128.542969 C 110.546875 128.511719 109.21875 129.917969 108.902344 131.808594 C 108.851562 131.507812 108.824219 131.1875 108.832031 130.863281 C 108.878906 128.609375 110.34375 126.804688 112.117188 126.835938 C 113.894531 126.875 115.292969 128.726562 115.253906 130.980469 Z M 115.253906 130.980469 " fill-opacity="0.7" fill-rule="nonzero"/><path fill="#371a45" d="M 112.023438 135.789062 C 112.003906 135.789062 111.984375 135.789062 111.964844 135.789062 C 110.859375 135.769531 109.84375 135.222656 109.105469 134.246094 C 108.40625 133.328125 108.039062 132.121094 108.058594 130.855469 C 108.078125 129.59375 108.496094 128.398438 109.222656 127.507812 C 110.003906 126.554688 111.035156 126.042969 112.140625 126.0625 C 113.246094 126.082031 114.261719 126.628906 115 127.605469 C 115.699219 128.523438 116.066406 129.730469 116.046875 130.992188 C 116.027344 132.257812 115.609375 133.449219 114.882812 134.34375 C 114.109375 135.28125 113.101562 135.789062 112.023438 135.789062 Z M 109.621094 130.882812 C 109.609375 131.800781 109.863281 132.65625 110.355469 133.300781 C 110.800781 133.886719 111.382812 134.214844 111.992188 134.226562 C 112.605469 134.238281 113.195312 133.925781 113.660156 133.359375 C 114.167969 132.734375 114.457031 131.886719 114.476562 130.96875 C 114.496094 130.050781 114.234375 129.195312 113.742188 128.550781 C 113.300781 127.964844 112.71875 127.636719 112.109375 127.625 C 111.492188 127.613281 110.90625 127.925781 110.441406 128.492188 C 109.929688 129.117188 109.640625 129.964844 109.621094 130.882812 Z M 109.621094 130.882812 " fill-opacity="1" fill-rule="nonzero"/><path fill="#371a45" d="M 105.320312 142.46875 C 104.886719 142.46875 104.535156 142.117188 104.535156 141.6875 L 104.535156 133.664062 L 101.015625 131.347656 C 100.792969 131.195312 100.660156 130.949219 100.660156 130.679688 L 100.882812 119.660156 C 100.890625 119.230469 101.25 118.878906 101.679688 118.890625 C 102.113281 118.898438 102.460938 119.257812 102.453125 119.6875 L 102.238281 130.277344 L 105.75 132.597656 C 105.972656 132.742188 106.105469 132.988281 106.105469 133.25 L 106.105469 141.6875 C 106.105469 142.117188 105.75 142.46875 105.320312 142.46875 Z M 105.320312 142.46875 " fill-opacity="1" fill-rule="nonzero"/><path fill="#371a45" d="M 157.25 127.820312 L 113.679688 136.8125 C 110.644531 138.253906 107.667969 138.871094 104.75 138.65625 C 104.742188 138.65625 104.738281 138.65625 104.730469 138.652344 C 101.8125 138.441406 98.945312 137.398438 96.148438 135.53125 L 79.667969 129.527344 C 80.511719 127.832031 81.410156 125.996094 82.324219 124.105469 L 83.601562 124.570312 C 97.78125 129.734375 113.128906 130.855469 127.917969 127.800781 L 155.203125 122.171875 C 155.917969 124.027344 156.605469 125.917969 157.25 127.820312 Z M 157.25 127.820312 " fill-opacity="0.35" fill-rule="nonzero"/><path fill="#ffffff" d="M 173.671875 127.792969 L 136.785156 135.40625 L 114.726562 139.953125 L 111.734375 140.574219 C 108.699219 142.011719 105.722656 142.632812 102.804688 142.417969 C 102.800781 142.417969 102.792969 142.417969 102.785156 142.410156 C 99.871094 142.203125 97.003906 141.160156 94.203125 139.289062 L 85.152344 135.992188 L 64.085938 128.316406 L 47.765625 122.371094 L 53.089844 118.847656 C 53.660156 118.476562 54.375 118.390625 55.007812 118.617188 L 67.808594 123.277344 L 91.5625 131.933594 L 103.363281 136.234375 L 114.992188 133.835938 L 140.269531 128.621094 L 167.019531 123.101562 C 167.671875 122.972656 168.359375 123.148438 168.855469 123.589844 Z M 173.671875 127.792969 " fill-opacity="1" fill-rule="nonzero"/><path fill="#102770" d="M 103.925781 142.601562 C 103.546875 142.601562 103.171875 142.585938 102.800781 142.5625 C 102.785156 142.5625 102.78125 142.5625 102.765625 142.554688 C 99.851562 142.339844 96.945312 141.285156 94.144531 139.417969 L 47.714844 122.507812 C 47.660156 122.488281 47.628906 122.445312 47.621094 122.390625 C 47.617188 122.339844 47.640625 122.289062 47.6875 122.253906 L 53.011719 118.730469 C 53.621094 118.332031 54.378906 118.242188 55.058594 118.488281 L 103.371094 136.082031 L 166.984375 122.953125 C 167.6875 122.808594 168.425781 123.003906 168.949219 123.472656 L 173.769531 127.683594 C 173.808594 127.722656 173.828125 127.773438 173.816406 127.828125 C 173.800781 127.878906 173.757812 127.917969 173.703125 127.929688 L 111.789062 140.710938 C 109.132812 141.96875 106.496094 142.601562 103.925781 142.601562 Z M 102.832031 142.273438 C 105.710938 142.476562 108.679688 141.863281 111.675781 140.441406 C 111.691406 140.4375 111.695312 140.4375 111.710938 140.429688 L 173.363281 127.710938 L 168.757812 123.6875 C 168.292969 123.277344 167.652344 123.109375 167.042969 123.234375 L 103.382812 136.371094 C 103.355469 136.375 103.328125 136.375 103.304688 136.363281 L 54.957031 118.753906 C 54.367188 118.539062 53.691406 118.617188 53.164062 118.964844 L 48.082031 122.332031 L 94.257812 139.152344 C 94.269531 139.160156 94.277344 139.160156 94.289062 139.164062 C 97.0625 141.015625 99.929688 142.058594 102.800781 142.269531 C 102.8125 142.269531 102.828125 142.273438 102.832031 142.273438 Z M 102.832031 142.273438 " fill-opacity="1" fill-rule="nonzero"/><g clip-path="url(#a580e5397b)"><path fill="#371a45" d="M 103.933594 143.5 C 103.527344 143.5 103.128906 143.484375 102.726562 143.453125 C 102.707031 143.453125 102.6875 143.445312 102.667969 143.445312 C 99.632812 143.21875 96.625 142.136719 93.726562 140.222656 L 47.40625 123.351562 C 47.035156 123.214844 46.773438 122.886719 46.726562 122.496094 C 46.679688 122.105469 46.855469 121.722656 47.183594 121.503906 L 52.503906 117.980469 C 53.347656 117.425781 54.414062 117.296875 55.355469 117.640625 L 103.433594 135.144531 L 166.800781 122.066406 C 167.785156 121.863281 168.804688 122.136719 169.550781 122.796875 L 174.363281 127.003906 C 174.664062 127.265625 174.789062 127.671875 174.683594 128.054688 C 174.582031 128.4375 174.273438 128.734375 173.886719 128.8125 L 112.074219 141.5625 C 109.335938 142.855469 106.601562 143.5 103.933594 143.5 Z M 102.929688 141.382812 C 105.632812 141.570312 108.445312 140.984375 111.289062 139.636719 C 111.371094 139.597656 111.449219 139.570312 111.53125 139.558594 L 171.40625 127.203125 L 168.167969 124.367188 C 167.914062 124.144531 167.566406 124.046875 167.226562 124.117188 L 103.566406 137.25 C 103.375 137.289062 103.179688 137.277344 102.996094 137.210938 L 54.648438 119.597656 C 54.328125 119.480469 53.960938 119.523438 53.667969 119.714844 L 50.070312 122.097656 L 94.570312 138.3125 C 94.648438 138.339844 94.722656 138.378906 94.792969 138.421875 C 97.429688 140.183594 100.152344 141.179688 102.871094 141.375 C 102.886719 141.375 102.910156 141.375 102.929688 141.382812 Z M 102.929688 141.382812 " fill-opacity="1" fill-rule="nonzero"/></g><path fill="#4a83ff" d="M 47.765625 122.371094 L 94.203125 139.289062 L 98.101562 198.519531 L 53.710938 182.351562 C 52.46875 181.902344 51.605469 180.753906 51.519531 179.4375 Z M 47.765625 122.371094 " fill-opacity="1" fill-rule="nonzero"/><path fill="#4a83ff" d="M 174.71875 187.609375 L 115.632812 199.804688 L 115.472656 197.3125 L 111.734375 140.574219 L 173.671875 127.792969 L 173.917969 131.542969 L 177.378906 184.128906 C 177.492188 185.792969 176.351562 187.277344 174.71875 187.609375 Z M 174.71875 187.609375 " fill-opacity="1" fill-rule="nonzero"/><path fill="#371a45" d="M 174.71875 187.609375 L 115.632812 199.804688 L 115.472656 197.3125 C 126.859375 195.195312 148.445312 190.097656 158.617188 180.546875 C 172.238281 167.765625 164.964844 146.84375 173.914062 131.535156 L 177.375 184.125 C 177.492188 185.792969 176.351562 187.277344 174.71875 187.609375 Z M 174.71875 187.609375 " fill-opacity="0.35" fill-rule="nonzero"/><path fill="#ffffff" d="M 173.644531 127.363281 L 173.875 130.863281 L 111.945312 143.644531 L 111.710938 140.144531 Z M 173.644531 127.363281 " fill-opacity="0.55" fill-rule="nonzero"/><path fill="#3ab4ff" d="M 111.734375 140.574219 L 115.632812 199.804688 C 112.597656 201.242188 109.621094 201.863281 106.707031 201.648438 C 106.699219 201.648438 106.691406 201.648438 106.6875 201.640625 C 103.769531 201.433594 100.902344 200.382812 98.101562 198.519531 L 94.203125 139.289062 C 97.003906 141.160156 99.871094 142.203125 102.785156 142.417969 C 102.792969 142.425781 102.800781 142.425781 102.804688 142.425781 C 105.730469 142.632812 108.707031 142.011719 111.734375 140.574219 Z M 111.734375 140.574219 " fill-opacity="1" fill-rule="nonzero"/><path fill="#102770" d="M 107.832031 201.835938 C 107.449219 201.835938 107.070312 201.824219 106.699219 201.796875 C 106.691406 201.796875 106.6875 201.796875 106.671875 201.789062 C 103.75 201.574219 100.835938 200.519531 98.023438 198.644531 C 97.984375 198.617188 97.964844 198.578125 97.960938 198.53125 L 94.0625 139.300781 C 94.054688 139.25 94.085938 139.199219 94.132812 139.164062 C 94.179688 139.140625 94.238281 139.140625 94.28125 139.171875 C 97.054688 141.023438 99.921875 142.066406 102.800781 142.273438 C 102.8125 142.273438 102.820312 142.273438 102.832031 142.28125 C 105.71875 142.484375 108.6875 141.871094 111.675781 140.449219 C 111.722656 140.429688 111.769531 140.429688 111.8125 140.457031 C 111.859375 140.480469 111.878906 140.519531 111.886719 140.574219 L 115.785156 199.804688 C 115.792969 199.863281 115.757812 199.914062 115.707031 199.941406 C 113.042969 201.199219 110.402344 201.835938 107.832031 201.835938 Z M 106.730469 201.511719 C 109.589844 201.710938 112.527344 201.113281 115.492188 199.71875 L 111.613281 140.789062 C 108.628906 142.167969 105.664062 142.769531 102.800781 142.554688 C 102.792969 142.554688 102.785156 142.554688 102.773438 142.546875 C 99.933594 142.339844 97.101562 141.335938 94.367188 139.558594 L 98.242188 198.429688 C 100.996094 200.253906 103.839844 201.28125 106.699219 201.492188 C 106.710938 201.503906 106.71875 201.503906 106.730469 201.511719 Z M 106.730469 201.511719 " fill-opacity="1" fill-rule="nonzero"/><path fill="#ffffff" d="M 94.210938 139.289062 L 94.445312 142.828125 L 52.804688 127.65625 C 51.921875 127.339844 50.996094 128.023438 51.0625 128.953125 L 54.59375 182.664062 L 53.71875 182.34375 C 52.476562 181.894531 51.613281 180.75 51.527344 179.433594 L 47.765625 122.371094 Z M 94.210938 139.289062 " fill-opacity="0.55" fill-rule="nonzero"/><path fill="#3ab4ff" d="M 111.734375 140.574219 L 115.632812 199.804688 C 112.597656 201.242188 109.621094 201.863281 106.707031 201.648438 C 106.699219 201.648438 106.691406 201.648438 106.6875 201.640625 C 103.769531 201.433594 100.902344 200.382812 98.101562 198.519531 L 94.203125 139.289062 C 97.003906 141.160156 99.871094 142.203125 102.785156 142.417969 C 102.792969 142.425781 102.800781 142.425781 102.804688 142.425781 C 105.730469 142.632812 108.707031 142.011719 111.734375 140.574219 Z M 111.734375 140.574219 " fill-opacity="1" fill-rule="nonzero"/><path fill="#102770" d="M 107.832031 201.835938 C 107.449219 201.835938 107.070312 201.824219 106.699219 201.796875 C 106.691406 201.796875 106.6875 201.796875 106.671875 201.789062 C 103.75 201.574219 100.835938 200.519531 98.023438 198.644531 C 97.984375 198.617188 97.964844 198.578125 97.960938 198.53125 L 94.0625 139.300781 C 94.054688 139.25 94.085938 139.199219 94.132812 139.164062 C 94.179688 139.140625 94.238281 139.140625 94.28125 139.171875 C 97.054688 141.023438 99.921875 142.066406 102.800781 142.273438 C 102.8125 142.273438 102.820312 142.273438 102.832031 142.28125 C 105.71875 142.484375 108.6875 141.871094 111.675781 140.449219 C 111.722656 140.429688 111.769531 140.429688 111.8125 140.457031 C 111.859375 140.480469 111.878906 140.519531 111.886719 140.574219 L 115.785156 199.804688 C 115.792969 199.863281 115.757812 199.914062 115.707031 199.941406 C 113.042969 201.199219 110.402344 201.835938 107.832031 201.835938 Z M 106.730469 201.511719 C 109.589844 201.710938 112.527344 201.113281 115.492188 199.71875 L 111.613281 140.789062 C 108.628906 142.167969 105.664062 142.769531 102.800781 142.554688 C 102.792969 142.554688 102.785156 142.554688 102.773438 142.546875 C 99.933594 142.339844 97.101562 141.335938 94.367188 139.558594 L 98.242188 198.429688 C 100.996094 200.253906 103.839844 201.28125 106.699219 201.492188 C 106.710938 201.503906 106.71875 201.503906 106.730469 201.511719 Z M 106.730469 201.511719 " fill-opacity="1" fill-rule="nonzero"/><path fill="#f92323" d="M 111.734375 140.574219 L 115.632812 199.804688 C 112.597656 201.242188 109.621094 201.863281 106.707031 201.648438 C 106.699219 201.648438 106.691406 201.648438 106.6875 201.640625 C 103.769531 201.433594 100.902344 200.382812 98.101562 198.519531 L 94.203125 139.289062 C 97.003906 141.160156 99.871094 142.203125 102.785156 142.417969 C 102.792969 142.425781 102.800781 142.425781 102.804688 142.425781 C 105.730469 142.632812 108.707031 142.011719 111.734375 140.574219 Z M 111.734375 140.574219 " fill-opacity="1" fill-rule="nonzero"/><g clip-path="url(#5aeab419e7)"><path fill="#371a45" d="M 98.101562 199.5625 C 97.984375 199.5625 97.859375 199.542969 97.742188 199.496094 L 53.351562 183.328125 C 51.71875 182.734375 50.59375 181.230469 50.472656 179.503906 L 46.71875 122.4375 C 46.699219 122.085938 46.851562 121.746094 47.136719 121.53125 C 47.417969 121.324219 47.792969 121.265625 48.125 121.386719 L 94.5625 138.304688 C 94.949219 138.449219 95.226562 138.808594 95.25 139.21875 L 99.148438 198.449219 C 99.167969 198.800781 99.019531 199.136719 98.730469 199.351562 C 98.546875 199.488281 98.324219 199.5625 98.101562 199.5625 Z M 48.917969 123.902344 L 52.566406 179.375 C 52.625 180.277344 53.214844 181.0625 54.070312 181.375 L 96.957031 196.996094 L 93.210938 140.039062 Z M 48.917969 123.902344 " fill-opacity="1" fill-rule="nonzero"/></g><path fill="#ffce00" d="M 113.101562 161.339844 C 110.066406 162.78125 107.089844 163.402344 104.171875 163.1875 C 104.167969 163.1875 104.160156 163.1875 104.152344 163.179688 C 101.238281 162.972656 98.371094 161.921875 95.570312 160.050781 L 95.121094 153.234375 C 97.921875 155.105469 100.785156 156.148438 103.703125 156.363281 C 103.710938 156.371094 103.714844 156.371094 103.722656 156.371094 C 106.640625 156.585938 109.617188 155.964844 112.652344 154.527344 Z M 113.101562 161.339844 " fill-opacity="1" fill-rule="nonzero"/><path fill="#ffce00" d="M 114.46875 185.074219 C 111.433594 186.515625 108.457031 187.132812 105.539062 186.917969 C 105.535156 186.917969 105.527344 186.917969 105.519531 186.914062 C 102.605469 186.703125 99.738281 185.65625 96.9375 183.785156 L 96.488281 176.96875 C 99.289062 178.839844 102.152344 179.882812 105.070312 180.097656 C 105.078125 180.101562 105.082031 180.101562 105.089844 180.101562 C 108.007812 180.316406 110.984375 179.699219 114.019531 178.257812 Z M 114.46875 185.074219 " fill-opacity="1" fill-rule="nonzero"/><path fill="#371a45" d="M 106.886719 188.398438 C 106.484375 188.398438 106.082031 188.386719 105.683594 188.351562 C 105.664062 188.351562 105.644531 188.347656 105.625 188.347656 C 102.550781 188.117188 99.507812 187.003906 96.578125 185.050781 C 96.3125 184.867188 96.140625 184.574219 96.113281 184.253906 L 95.664062 177.4375 C 95.636719 177.039062 95.839844 176.664062 96.1875 176.46875 C 96.535156 176.265625 96.957031 176.285156 97.292969 176.507812 C 99.929688 178.265625 102.648438 179.261719 105.371094 179.457031 C 105.390625 179.457031 105.410156 179.464844 105.429688 179.464844 C 108.132812 179.652344 110.945312 179.066406 113.789062 177.71875 C 114.105469 177.566406 114.46875 177.585938 114.769531 177.757812 C 115.070312 177.925781 115.261719 178.246094 115.289062 178.589844 L 115.738281 185.40625 C 115.765625 185.832031 115.53125 186.234375 115.144531 186.417969 C 112.363281 187.734375 109.597656 188.398438 106.886719 188.398438 Z M 105.882812 186.273438 C 108.378906 186.449219 110.976562 185.960938 113.601562 184.816406 L 113.292969 180.195312 C 110.570312 181.277344 107.871094 181.71875 105.234375 181.53125 C 105.214844 181.53125 105.195312 181.523438 105.175781 181.523438 C 102.714844 181.339844 100.269531 180.59375 97.886719 179.296875 L 98.167969 183.597656 C 100.675781 185.1875 103.246094 186.085938 105.816406 186.269531 C 105.84375 186.273438 105.863281 186.273438 105.882812 186.273438 Z M 105.882812 186.273438 " fill-opacity="1" fill-rule="nonzero"/><g clip-path="url(#cc16ac6fe8)"><path fill="#371a45" d="M 115.632812 200.84375 C 115.40625 200.84375 115.183594 200.773438 115 200.628906 C 114.757812 200.449219 114.609375 200.167969 114.589844 199.867188 L 110.695312 140.636719 C 110.664062 140.117188 111.015625 139.65625 111.527344 139.550781 L 173.460938 126.769531 C 173.757812 126.710938 174.0625 126.777344 174.304688 126.960938 C 174.546875 127.144531 174.699219 127.421875 174.71875 127.722656 L 178.425781 184.058594 C 178.570312 186.222656 177.066406 188.191406 174.933594 188.632812 L 115.851562 200.824219 C 115.777344 200.839844 115.707031 200.84375 115.632812 200.84375 Z M 112.839844 141.40625 L 116.601562 198.539062 L 174.507812 186.585938 C 175.628906 186.359375 176.410156 185.328125 176.332031 184.195312 L 172.703125 129.050781 Z M 112.839844 141.40625 " fill-opacity="1" fill-rule="nonzero"/></g><g clip-path="url(#54855f3726)"><path fill="#371a45" d="M 107.832031 202.734375 C 107.425781 202.734375 107.027344 202.722656 106.625 202.691406 C 106.605469 202.691406 106.585938 202.683594 106.566406 202.683594 C 103.5 202.457031 100.453125 201.339844 97.519531 199.386719 C 97.253906 199.203125 97.082031 198.910156 97.054688 198.589844 L 93.164062 139.355469 C 93.136719 138.957031 93.339844 138.578125 93.6875 138.382812 C 94.035156 138.183594 94.460938 138.203125 94.792969 138.421875 C 97.429688 140.183594 100.152344 141.179688 102.871094 141.375 C 102.890625 141.375 102.910156 141.382812 102.9375 141.382812 C 105.640625 141.570312 108.453125 140.984375 111.296875 139.636719 C 111.613281 139.484375 111.976562 139.5 112.277344 139.675781 C 112.578125 139.851562 112.769531 140.164062 112.796875 140.507812 L 116.695312 199.738281 C 116.71875 200.160156 116.484375 200.566406 116.097656 200.746094 C 113.3125 202.0625 110.539062 202.734375 107.832031 202.734375 Z M 106.828125 200.609375 C 109.328125 200.785156 111.925781 200.296875 114.546875 199.152344 L 110.792969 142.117188 C 108.074219 143.199219 105.363281 143.644531 102.734375 143.453125 C 102.714844 143.453125 102.695312 143.445312 102.675781 143.445312 C 100.214844 143.265625 97.769531 142.515625 95.386719 141.21875 L 99.125 197.933594 C 101.628906 199.523438 104.199219 200.421875 106.769531 200.605469 C 106.785156 200.609375 106.808594 200.609375 106.828125 200.609375 Z M 106.828125 200.609375 " fill-opacity="1" fill-rule="nonzero"/></g><path fill="#371a45" d="M 104.847656 157.453125 C 104.449219 157.453125 104.042969 157.4375 103.644531 157.40625 C 103.625 157.40625 103.605469 157.398438 103.585938 157.398438 C 100.515625 157.171875 97.46875 156.058594 94.539062 154.101562 C 94.0625 153.78125 93.929688 153.128906 94.25 152.65625 C 94.570312 152.179688 95.226562 152.050781 95.703125 152.367188 C 98.339844 154.128906 101.058594 155.125 103.78125 155.320312 C 103.800781 155.320312 103.820312 155.328125 103.847656 155.328125 C 106.546875 155.515625 109.359375 154.929688 112.207031 153.582031 C 112.730469 153.332031 113.351562 153.554688 113.601562 154.074219 C 113.847656 154.597656 113.625 155.214844 113.101562 155.464844 C 110.328125 156.785156 107.554688 157.453125 104.847656 157.453125 Z M 104.847656 157.453125 " fill-opacity="1" fill-rule="nonzero"/><path fill="#371a45" d="M 105.300781 164.269531 C 104.898438 164.269531 104.496094 164.253906 104.09375 164.222656 C 104.074219 164.222656 104.054688 164.214844 104.035156 164.214844 C 100.96875 163.988281 97.921875 162.875 94.988281 160.917969 C 94.511719 160.597656 94.382812 159.945312 94.703125 159.472656 C 95.023438 158.996094 95.675781 158.867188 96.152344 159.183594 C 98.789062 160.945312 101.511719 161.941406 104.234375 162.136719 C 104.253906 162.136719 104.273438 162.144531 104.296875 162.144531 C 107 162.332031 109.8125 161.746094 112.65625 160.398438 C 113.179688 160.148438 113.804688 160.371094 114.050781 160.890625 C 114.300781 161.414062 114.078125 162.03125 113.554688 162.28125 C 110.78125 163.601562 108.007812 164.269531 105.300781 164.269531 Z M 105.300781 164.269531 " fill-opacity="1" fill-rule="nonzero"/><path fill="#371a45" d="M 106.4375 181.589844 C 106.03125 181.589844 105.632812 181.574219 105.234375 181.542969 C 105.214844 181.542969 105.195312 181.535156 105.175781 181.535156 C 102.101562 181.308594 99.058594 180.195312 96.128906 178.238281 C 95.648438 177.921875 95.519531 177.269531 95.839844 176.792969 C 96.160156 176.316406 96.816406 176.1875 97.292969 176.507812 C 99.929688 178.265625 102.648438 179.261719 105.371094 179.457031 C 105.390625 179.457031 105.410156 179.464844 105.4375 179.464844 C 108.136719 179.652344 110.949219 179.066406 113.796875 177.71875 C 114.320312 177.46875 114.941406 177.691406 115.191406 178.214844 C 115.4375 178.734375 115.214844 179.355469 114.691406 179.601562 C 111.917969 180.925781 109.144531 181.589844 106.4375 181.589844 Z M 106.4375 181.589844 " fill-opacity="1" fill-rule="nonzero"/><path fill="#371a45" d="M 106.886719 188.410156 C 106.484375 188.410156 106.082031 188.398438 105.683594 188.367188 C 105.664062 188.367188 105.644531 188.359375 105.625 188.359375 C 102.550781 188.132812 99.507812 187.015625 96.578125 185.0625 C 96.101562 184.742188 95.972656 184.089844 96.292969 183.617188 C 96.613281 183.140625 97.265625 183.007812 97.742188 183.328125 C 100.378906 185.089844 103.101562 186.085938 105.824219 186.28125 C 105.84375 186.28125 105.863281 186.289062 105.886719 186.289062 C 108.589844 186.476562 111.402344 185.890625 114.246094 184.539062 C 114.769531 184.292969 115.390625 184.515625 115.640625 185.035156 C 115.890625 185.558594 115.667969 186.175781 115.144531 186.425781 C 112.363281 187.742188 109.597656 188.410156 106.886719 188.410156 Z M 106.886719 188.410156 " fill-opacity="1" fill-rule="nonzero"/><path fill="#371a45" d="M 91.554688 131.933594 C 91.488281 132.035156 91.390625 132.121094 91.265625 132.1875 C 87.550781 134.140625 86.320312 133.261719 85.152344 135.992188 C 84.972656 136.410156 84.796875 136.910156 84.609375 137.523438 C 80.589844 150.792969 60.5625 136.597656 63.9375 128.660156 C 63.988281 128.542969 64.035156 128.433594 64.085938 128.320312 C 65.09375 126.066406 66.363281 124.425781 67.804688 123.285156 Z M 91.554688 131.933594 " fill-opacity="0.35" fill-rule="nonzero"/><path fill="#ffffff" d="M 88.652344 129.578125 C 84.367188 131.835938 83.390625 130.316406 81.992188 134.917969 C 77.976562 148.183594 57.945312 133.992188 61.320312 126.054688 C 68.960938 108.070312 92.511719 127.546875 88.652344 129.578125 Z M 88.652344 129.578125 " fill-opacity="1" fill-rule="nonzero"/><path fill="#371a45" d="M 88.652344 129.578125 C 84.371094 131.835938 83.390625 130.316406 81.992188 134.917969 C 78.171875 147.519531 59.894531 135.332031 60.988281 127.28125 C 65.074219 134.226562 77.648438 140.28125 80.742188 130.070312 C 81.953125 126.074219 86.367188 127.300781 89.03125 128.519531 C 89.140625 129.007812 89.03125 129.378906 88.652344 129.578125 Z M 88.652344 129.578125 " fill-opacity="0.35" fill-rule="nonzero"/><path fill="#371a45" d="M 75.285156 141.394531 C 70.699219 141.394531 65.558594 138.097656 62.695312 134.585938 C 60.128906 131.449219 59.285156 128.191406 60.363281 125.644531 C 63.550781 118.148438 69.175781 117.09375 73.335938 117.53125 C 80.898438 118.324219 89.417969 124.972656 90.078125 128.378906 C 90.253906 129.304688 89.90625 130.09375 89.140625 130.5 C 87.746094 131.234375 86.703125 131.582031 85.859375 131.859375 C 84.203125 132.414062 83.808594 132.542969 83 135.210938 C 81.710938 139.457031 79.007812 140.828125 76.960938 141.230469 C 76.410156 141.34375 75.855469 141.394531 75.285156 141.394531 Z M 71.703125 119.523438 C 67.402344 119.523438 64.25 121.84375 62.289062 126.457031 C 61.515625 128.269531 62.253906 130.753906 64.316406 133.269531 C 67.195312 136.792969 72.558594 139.972656 76.554688 139.191406 C 78.707031 138.769531 80.199219 137.230469 80.992188 134.617188 C 82.0625 131.078125 83.109375 130.582031 85.191406 129.894531 C 85.929688 129.644531 86.84375 129.339844 88.023438 128.734375 C 87.773438 127.195312 81.925781 121.578125 75.109375 119.953125 C 73.898438 119.660156 72.769531 119.523438 71.703125 119.523438 Z M 88.652344 129.578125 Z M 88.652344 129.578125 " fill-opacity="1" fill-rule="nonzero"/><path fill="#371a45" d="M 140.617188 129.976562 C 138.332031 133.078125 136.886719 133.117188 136.785156 135.398438 C 136.757812 135.984375 136.816406 136.714844 136.972656 137.671875 C 139.066406 150.679688 117.277344 147.667969 114.730469 139.949219 C 114.59375 139.542969 114.515625 139.132812 114.496094 138.710938 C 114.398438 136.847656 114.582031 135.230469 114.992188 133.820312 L 140.269531 128.609375 C 140.765625 129.085938 140.925781 129.558594 140.617188 129.976562 Z M 140.617188 129.976562 " fill-opacity="0.35" fill-rule="nonzero"/><path fill="#ffffff" d="M 138 128.464844 C 135.136719 132.355469 133.589844 131.417969 134.355469 136.167969 C 136.566406 149.847656 112.332031 145.8125 111.875 137.203125 C 110.851562 117.695312 140.578125 124.960938 138 128.464844 Z M 138 128.464844 " fill-opacity="1" fill-rule="nonzero"/><path fill="#371a45" d="M 138 128.464844 C 135.136719 132.355469 133.589844 131.417969 134.355469 136.167969 C 136.5625 149.847656 112.324219 145.8125 111.875 137.199219 C 111.875 137.199219 111.875 137.199219 111.875 137.191406 C 117.472656 142.050781 130.089844 142.546875 131.773438 131.816406 C 132.425781 127.65625 134.539062 127.339844 137.488281 126.964844 C 138.125 127.488281 138.332031 128.007812 138 128.464844 Z M 138 128.464844 " fill-opacity="0.35" fill-rule="nonzero"/><path fill="#371a45" d="M 125.289062 146.105469 C 122.328125 146.105469 119.253906 145.394531 116.84375 144.273438 C 113.160156 142.566406 110.96875 140.007812 110.828125 137.25 C 110.402344 129.125 115 125.722656 118.929688 124.300781 C 126.082031 121.722656 136.660156 123.988281 138.753906 126.765625 C 139.320312 127.519531 139.355469 128.378906 138.84375 129.078125 C 137.910156 130.347656 137.125 131.117188 136.488281 131.738281 C 135.238281 132.957031 134.945312 133.25 135.390625 136 C 136.097656 140.378906 134.265625 142.789062 132.601562 144.039062 C 130.671875 145.5 128.03125 146.105469 125.289062 146.105469 Z M 126.148438 125.238281 C 124.640625 125.238281 123.097656 125.375 121.59375 125.707031 C 115.511719 127.050781 112.59375 130.902344 112.917969 137.144531 C 113.023438 139.105469 114.777344 141.015625 117.734375 142.386719 C 121.867188 144.300781 128.097656 144.820312 131.339844 142.378906 C 133.09375 141.0625 133.753906 139.027344 133.324219 136.332031 C 132.734375 132.683594 133.460938 131.78125 135.023438 130.25 C 135.578125 129.703125 136.265625 129.03125 137.066406 127.976562 C 136.359375 126.984375 131.496094 125.238281 126.148438 125.238281 Z M 137.15625 127.851562 Z M 137.15625 127.851562 " fill-opacity="1" fill-rule="nonzero"/><path fill="#371a45" d="M 111.9375 143.550781 L 115.640625 199.804688 C 113.371094 200.882812 111.128906 201.496094 108.921875 201.652344 C 109.289062 201.503906 109.648438 201.347656 110.007812 201.171875 L 106.785156 152.121094 C 106.542969 148.496094 108.589844 145.140625 111.878906 143.578125 C 111.898438 143.570312 111.917969 143.558594 111.9375 143.550781 Z M 111.9375 143.550781 " fill-opacity="0.35" fill-rule="nonzero"/><path fill="#ffffff" d="M 160.5625 158.929688 L 158.226562 162.632812 C 157.992188 162.996094 157.875 163.421875 157.867188 163.835938 C 157.859375 164.171875 157.925781 164.507812 158.0625 164.820312 L 158.332031 165.441406 L 159.804688 168.835938 C 160.582031 170.628906 158.960938 172.539062 157.050781 172.0625 L 152.789062 171 C 152.03125 170.808594 151.234375 171.007812 150.644531 171.519531 L 147.347656 174.40625 C 145.871094 175.703125 143.546875 174.746094 143.417969 172.796875 L 143.117188 168.4375 C 143.058594 167.664062 142.625 166.960938 141.957031 166.566406 L 138.183594 164.339844 C 136.5625 163.382812 136.671875 161.054688 138.28125 160.214844 C 138.351562 160.175781 138.425781 160.144531 138.503906 160.109375 L 142.578125 158.480469 C 143.296875 158.1875 143.835938 157.5625 144.003906 156.804688 L 144.777344 153.386719 L 144.96875 152.542969 C 145.398438 150.628906 147.839844 150.042969 149.101562 151.539062 L 151.914062 154.898438 C 152.410156 155.488281 153.175781 155.800781 153.953125 155.730469 L 158.324219 155.320312 C 160.289062 155.136719 161.601562 157.269531 160.5625 158.929688 Z M 160.5625 158.929688 " fill-opacity="1" fill-rule="nonzero"/><path fill="#ffce00" d="M 157.167969 159.5625 L 155.019531 162.964844 C 154.804688 163.304688 154.695312 163.6875 154.6875 164.070312 C 154.679688 164.378906 154.738281 164.691406 154.871094 164.976562 L 155.121094 165.546875 L 156.46875 168.667969 C 157.1875 170.316406 155.6875 172.066406 153.933594 171.632812 L 150.023438 170.652344 C 149.328125 170.476562 148.589844 170.660156 148.054688 171.128906 L 145.027344 173.78125 C 143.671875 174.972656 141.53125 174.09375 141.410156 172.300781 L 141.132812 168.296875 C 141.082031 167.578125 140.683594 166.941406 140.066406 166.574219 L 136.59375 164.527344 C 135.101562 163.648438 135.199219 161.511719 136.683594 160.734375 C 136.75 160.703125 136.824219 160.671875 136.886719 160.644531 L 140.628906 159.144531 C 141.289062 158.878906 141.789062 158.304688 141.945312 157.609375 L 142.65625 154.460938 L 142.828125 153.683594 C 143.226562 151.925781 145.46875 151.382812 146.628906 152.765625 L 149.21875 155.847656 C 149.675781 156.394531 150.382812 156.683594 151.097656 156.617188 L 155.113281 156.238281 C 156.910156 156.082031 158.121094 158.039062 157.167969 159.5625 Z M 157.167969 159.5625 " fill-opacity="1" fill-rule="nonzero"/><path fill="#ffffff" d="M 157.167969 159.5625 L 155.019531 162.964844 C 154.804688 163.304688 154.695312 163.6875 154.6875 164.070312 C 154.535156 164.019531 154.394531 163.96875 154.242188 163.910156 C 153.933594 163.785156 153.613281 163.65625 153.410156 163.402344 C 153.15625 163.089844 153.128906 162.632812 153.253906 162.253906 C 153.386719 161.871094 153.648438 161.550781 153.933594 161.269531 C 154.398438 160.820312 154.996094 160.332031 154.941406 159.6875 C 154.902344 159.210938 154.496094 158.828125 154.039062 158.675781 C 153.582031 158.527344 153.085938 158.566406 152.613281 158.636719 C 151.941406 158.730469 151.273438 158.867188 150.613281 159.042969 C 150.160156 159.164062 149.695312 159.308594 149.226562 159.296875 C 148.183594 159.257812 147.339844 158.441406 146.796875 157.570312 C 146.25 156.6875 145.890625 155.691406 145.234375 154.890625 C 145.085938 154.707031 144.914062 154.53125 144.707031 154.433594 C 144.496094 154.34375 144.261719 154.328125 144.039062 154.328125 C 143.566406 154.328125 143.109375 154.375 142.652344 154.460938 L 142.820312 153.683594 C 143.21875 151.925781 145.464844 151.382812 146.621094 152.765625 L 149.210938 155.847656 C 149.671875 156.394531 150.375 156.683594 151.089844 156.617188 L 155.105469 156.238281 C 156.910156 156.082031 158.121094 158.039062 157.167969 159.5625 Z M 157.167969 159.5625 " fill-opacity="0.6" fill-rule="nonzero"/><path fill="#e2ac40" d="M 156.46875 168.671875 C 157.1875 170.320312 155.6875 172.074219 153.933594 171.636719 L 150.023438 170.660156 C 149.328125 170.484375 148.589844 170.667969 148.054688 171.136719 L 145.027344 173.789062 C 143.671875 174.980469 141.53125 174.101562 141.410156 172.308594 L 141.132812 168.300781 C 141.082031 167.585938 140.683594 166.945312 140.066406 166.582031 L 136.59375 164.535156 C 135.101562 163.65625 135.199219 161.519531 136.683594 160.742188 C 136.722656 160.8125 136.777344 160.886719 136.835938 160.96875 C 137.242188 161.511719 137.851562 161.921875 138.472656 162.183594 C 139.675781 162.683594 141.035156 162.859375 142.054688 163.65625 C 143.496094 164.78125 143.828125 166.761719 144.3125 168.523438 C 144.398438 168.828125 144.515625 169.167969 144.789062 169.324219 C 145.058594 169.472656 145.398438 169.421875 145.679688 169.304688 C 146.621094 168.914062 147.269531 167.921875 148.265625 167.683594 C 149.625 167.355469 153.203125 169.773438 154.113281 168.691406 C 154.832031 167.832031 152.980469 165.8125 155.121094 165.550781 Z M 156.46875 168.671875 " fill-opacity="1" fill-rule="nonzero"/><path fill="#371a45" d="M 143.585938 175.386719 C 143.175781 175.386719 142.753906 175.308594 142.351562 175.136719 C 141.207031 174.667969 140.441406 173.613281 140.363281 172.382812 L 140.085938 168.375 C 140.0625 168 139.851562 167.667969 139.53125 167.480469 L 136.058594 165.433594 C 134.992188 164.808594 134.390625 163.65625 134.480469 162.421875 C 134.574219 161.191406 135.34375 160.144531 136.496094 159.6875 L 140.238281 158.1875 C 140.585938 158.050781 140.839844 157.75 140.917969 157.386719 L 141.800781 153.464844 C 142.070312 152.257812 142.984375 151.332031 144.1875 151.046875 C 145.390625 150.753906 146.628906 151.164062 147.425781 152.109375 L 150.015625 155.191406 C 150.257812 155.476562 150.617188 155.625 150.992188 155.585938 L 155.007812 155.210938 C 156.238281 155.09375 157.410156 155.671875 158.054688 156.722656 C 158.703125 157.769531 158.699219 159.074219 158.042969 160.117188 L 155.898438 163.519531 C 155.703125 163.832031 155.667969 164.230469 155.820312 164.566406 L 157.421875 168.257812 C 157.914062 169.390625 157.722656 170.671875 156.917969 171.613281 C 156.113281 172.550781 154.878906 172.949219 153.671875 172.648438 L 149.761719 171.671875 C 149.402344 171.578125 149.015625 171.671875 148.734375 171.917969 L 145.707031 174.578125 C 145.109375 175.105469 144.359375 175.386719 143.585938 175.386719 Z M 144.972656 153.03125 C 144.882812 153.03125 144.789062 153.046875 144.699219 153.066406 C 144.265625 153.171875 143.953125 153.488281 143.859375 153.917969 L 142.976562 157.84375 C 142.742188 158.878906 142.015625 159.726562 141.035156 160.125 L 137.292969 161.621094 C 136.882812 161.785156 136.621094 162.144531 136.585938 162.585938 C 136.554688 163.023438 136.757812 163.421875 137.136719 163.640625 L 140.609375 165.6875 C 141.527344 166.230469 142.113281 167.179688 142.1875 168.238281 L 142.460938 172.242188 C 142.492188 172.679688 142.753906 173.046875 143.160156 173.214844 C 143.566406 173.382812 144.011719 173.304688 144.34375 173.019531 L 147.375 170.359375 C 148.171875 169.664062 149.265625 169.394531 150.292969 169.65625 L 154.203125 170.632812 C 154.636719 170.738281 155.058594 170.609375 155.339844 170.269531 C 155.628906 169.9375 155.695312 169.492188 155.519531 169.089844 L 153.914062 165.402344 C 153.496094 164.429688 153.582031 163.316406 154.144531 162.417969 L 156.289062 159.015625 C 156.527344 158.644531 156.527344 158.195312 156.296875 157.824219 C 156.066406 157.453125 155.664062 157.25 155.222656 157.289062 L 151.207031 157.667969 C 150.148438 157.765625 149.113281 157.339844 148.425781 156.527344 L 145.835938 153.445312 C 145.609375 153.175781 145.300781 153.03125 144.972656 153.03125 Z M 144.972656 153.03125 " fill-opacity="1" fill-rule="nonzero"/><path fill="#371a45" d="M 84.457031 154.941406 C 84.429688 154.160156 84.410156 153.367188 84.144531 152.601562 C 84.066406 152.53125 83.988281 152.453125 83.90625 152.375 C 83.671875 152.328125 83.4375 152.257812 83.195312 152.230469 C 81.488281 152.054688 79.800781 152.140625 78.132812 152.539062 C 75.960938 153.058594 74.035156 154.035156 72.507812 155.699219 C 71.949219 156.296875 71.464844 156.949219 70.960938 157.589844 C 70.824219 157.765625 70.714844 157.84375 70.476562 157.777344 C 69.921875 157.621094 69.347656 157.601562 68.769531 157.652344 C 67.234375 157.816406 65.945312 158.507812 64.792969 159.496094 C 63.542969 160.566406 62.609375 161.894531 61.765625 163.285156 C 61.40625 163.875 61.660156 164.429688 62.355469 164.554688 C 62.785156 164.625 63.222656 164.699219 63.65625 164.769531 C 64.695312 164.9375 65.730469 165.109375 66.769531 165.277344 C 66.769531 165.308594 66.777344 165.324219 66.777344 165.335938 C 66.769531 165.355469 66.761719 165.382812 66.757812 165.402344 C 66.421875 165.996094 66.597656 166.464844 67.101562 166.863281 C 67.15625 166.90625 67.207031 166.960938 67.253906 167.011719 C 67.527344 167.277344 67.804688 167.539062 68.089844 167.820312 C 67.804688 168.117188 67.507812 168.386719 67.261719 168.691406 C 67.136719 168.84375 67.039062 169.058594 67.011719 169.253906 C 66.964844 169.570312 67.167969 169.859375 67.460938 169.976562 C 67.777344 170.105469 68.070312 170.054688 68.3125 169.820312 C 68.621094 169.527344 68.902344 169.214844 69.210938 168.902344 C 69.601562 169.277344 69.976562 169.644531 70.347656 169.996094 C 70.773438 170.398438 71.027344 170.4375 71.5625 170.203125 C 71.664062 170.160156 71.753906 170.121094 71.871094 170.074219 C 71.898438 170.191406 71.925781 170.28125 71.9375 170.375 C 72.226562 171.789062 72.507812 173.203125 72.800781 174.609375 C 72.9375 175.273438 73.519531 175.515625 74.089844 175.136719 C 74.597656 174.796875 75.109375 174.441406 75.605469 174.070312 C 76.75 173.207031 77.757812 172.210938 78.5 170.972656 C 79.421875 169.421875 79.8125 167.78125 79.242188 166 C 79.21875 165.929688 79.261719 165.800781 79.324219 165.753906 C 79.828125 165.308594 80.34375 164.894531 80.847656 164.449219 C 81.976562 163.445312 82.828125 162.234375 83.425781 160.847656 C 84.230469 158.957031 84.535156 156.980469 84.457031 154.941406 Z M 67.378906 163.8125 C 66.179688 163.609375 64.929688 163.40625 63.65625 163.191406 C 64.714844 161.667969 65.867188 160.304688 67.585938 159.542969 C 68.332031 159.21875 69.230469 159.101562 69.792969 159.230469 C 68.992188 160.75 68.195312 162.265625 67.378906 163.8125 Z M 77.890625 168.222656 C 77.738281 169.195312 77.292969 170.027344 76.710938 170.804688 C 75.988281 171.753906 75.089844 172.519531 74.109375 173.242188 C 73.847656 171.945312 73.585938 170.671875 73.332031 169.421875 C 74.855469 168.550781 76.339844 167.703125 77.835938 166.847656 C 77.96875 167.277344 77.960938 167.753906 77.890625 168.222656 Z M 82.539062 158.558594 C 82.207031 159.863281 81.691406 161.074219 80.859375 162.148438 C 80.21875 162.972656 79.445312 163.667969 78.628906 164.308594 C 76.398438 166.039062 73.9375 167.375 71.386719 168.574219 C 71.261719 168.632812 71.183594 168.632812 71.082031 168.53125 C 70.851562 168.296875 70.609375 168.074219 70.375 167.839844 C 70.359375 167.824219 70.347656 167.800781 70.320312 167.761719 C 70.378906 167.695312 70.445312 167.628906 70.511719 167.566406 C 71.859375 166.171875 73.210938 164.78125 74.554688 163.386719 C 74.945312 162.992188 74.875 162.417969 74.417969 162.144531 C 74.097656 161.953125 73.722656 162.011719 73.429688 162.304688 C 72.617188 163.140625 71.804688 163.972656 71 164.808594 C 70.398438 165.425781 69.804688 166.046875 69.175781 166.699219 C 68.890625 166.417969 68.609375 166.164062 68.351562 165.890625 C 68.304688 165.839844 68.328125 165.703125 68.367188 165.625 C 68.992188 164.292969 69.613281 162.964844 70.28125 161.648438 C 70.941406 160.34375 71.726562 159.113281 72.617188 157.960938 C 73.453125 156.871094 74.390625 155.878906 75.601562 155.191406 C 76.371094 154.746094 77.191406 154.402344 78.054688 154.179688 C 78.132812 154.152344 78.257812 154.21875 78.328125 154.285156 C 79.394531 155.300781 80.449219 156.316406 81.507812 157.335938 C 81.820312 157.632812 82.140625 157.945312 82.460938 158.246094 C 82.546875 158.34375 82.574219 158.429688 82.539062 158.558594 Z M 82.820312 156.871094 C 81.769531 155.855469 80.734375 154.863281 79.707031 153.875 C 79.707031 153.847656 79.707031 153.816406 79.707031 153.789062 C 80.730469 153.757812 81.757812 153.730469 82.789062 153.699219 C 82.933594 154.785156 82.921875 155.808594 82.820312 156.871094 Z M 82.820312 156.871094 " fill-opacity="1" fill-rule="nonzero"/><path fill="#ffffff" d="M 82.449219 158.253906 C 82.121094 157.953125 81.808594 157.648438 81.496094 157.339844 C 80.433594 156.324219 79.382812 155.300781 78.316406 154.289062 C 78.25 154.226562 78.117188 154.167969 78.039062 154.1875 C 77.175781 154.414062 76.359375 154.753906 75.585938 155.195312 C 74.378906 155.886719 73.441406 156.878906 72.605469 157.964844 C 71.707031 159.121094 70.921875 160.351562 70.269531 161.65625 C 69.601562 162.964844 68.980469 164.300781 68.351562 165.628906 C 68.3125 165.703125 68.300781 165.84375 68.339844 165.898438 C 68.59375 166.171875 68.875 166.425781 69.164062 166.703125 C 69.792969 166.058594 70.386719 165.441406 70.988281 164.816406 C 71.792969 163.980469 72.605469 163.148438 73.414062 162.3125 C 73.703125 162.019531 74.082031 161.960938 74.402344 162.148438 C 74.859375 162.417969 74.925781 162.992188 74.539062 163.394531 C 73.191406 164.789062 71.839844 166.175781 70.496094 167.570312 C 70.433594 167.636719 70.367188 167.703125 70.308594 167.765625 C 70.335938 167.8125 70.339844 167.832031 70.359375 167.84375 C 70.597656 168.074219 70.84375 168.296875 71.066406 168.535156 C 71.171875 168.640625 71.25 168.640625 71.375 168.582031 C 73.917969 167.382812 76.386719 166.046875 78.617188 164.3125 C 79.441406 163.675781 80.207031 162.976562 80.847656 162.15625 C 81.683594 161.085938 82.195312 159.867188 82.527344 158.566406 C 82.574219 158.429688 82.546875 158.34375 82.449219 158.253906 Z M 80.046875 160.410156 C 79.015625 161.460938 77.339844 161.492188 76.292969 160.480469 C 75.242188 159.472656 75.214844 157.796875 76.234375 156.742188 C 77.234375 155.703125 78.917969 155.679688 79.96875 156.6875 C 81.011719 157.6875 81.050781 159.386719 80.046875 160.410156 Z M 80.046875 160.410156 " fill-opacity="1" fill-rule="nonzero"/><path fill="#db2c2c" d="M 82.820312 156.871094 C 81.769531 155.855469 80.734375 154.863281 79.707031 153.875 C 79.707031 153.847656 79.707031 153.816406 79.707031 153.789062 C 80.730469 153.757812 81.757812 153.730469 82.789062 153.699219 C 82.933594 154.785156 82.921875 155.808594 82.820312 156.871094 Z M 82.820312 156.871094 " fill-opacity="1" fill-rule="nonzero"/><path fill="#db2c2c" d="M 69.796875 159.230469 C 69 160.75 68.203125 162.265625 67.382812 163.804688 C 66.179688 163.601562 64.9375 163.402344 63.660156 163.1875 C 64.722656 161.660156 65.875 160.300781 67.601562 159.535156 C 68.332031 159.210938 69.230469 159.09375 69.796875 159.230469 Z M 69.796875 159.230469 " fill-opacity="1" fill-rule="nonzero"/><path fill="#db2c2c" d="M 76.71875 170.804688 C 75.992188 171.753906 75.097656 172.523438 74.117188 173.242188 C 73.855469 171.945312 73.59375 170.671875 73.335938 169.421875 C 74.859375 168.554688 76.347656 167.703125 77.84375 166.847656 C 77.96875 167.277344 77.960938 167.746094 77.894531 168.222656 C 77.738281 169.195312 77.300781 170.027344 76.71875 170.804688 Z M 76.71875 170.804688 " fill-opacity="1" fill-rule="nonzero"/><path fill="#371a45" d="M 79.964844 156.683594 C 78.910156 155.671875 77.230469 155.699219 76.226562 156.734375 C 75.207031 157.789062 75.234375 159.464844 76.289062 160.476562 C 77.332031 161.484375 79.015625 161.453125 80.042969 160.402344 C 81.050781 159.386719 81.011719 157.6875 79.964844 156.683594 Z M 79.113281 159.5625 C 78.589844 160.097656 77.707031 160.109375 77.15625 159.589844 C 76.589844 159.054688 76.589844 158.148438 77.144531 157.589844 C 77.667969 157.058594 78.570312 157.054688 79.101562 157.574219 C 79.664062 158.121094 79.664062 159.003906 79.113281 159.5625 Z M 79.113281 159.5625 " fill-opacity="1" fill-rule="nonzero"/><path fill="#22a7f0" d="M 79.113281 159.5625 C 78.589844 160.097656 77.707031 160.109375 77.15625 159.589844 C 76.59375 159.054688 76.589844 158.148438 77.144531 157.589844 C 77.667969 157.058594 78.570312 157.054688 79.101562 157.574219 C 79.664062 158.121094 79.664062 159.003906 79.113281 159.5625 Z M 79.113281 159.5625 " fill-opacity="1" fill-rule="nonzero"/></svg>